<svg id="OBJECTS" xmlns="http://www.w3.org/2000/svg" xmlns:xlink="http://www.w3.org/1999/xlink" viewBox="0 0 500 500"><defs><style>.cls-1{fill:#93aeff;}.cls-2{fill:#e6edff;}.cls-3{fill:#ffd56c;}.cls-4{fill:#f52f67;}.cls-5{fill:#ecece9;}.cls-6{fill:#f55899;}.cls-7{fill:#fff;}.cls-8{fill:#b3b6bf;}.cls-9{fill:#ccc;}.cls-10{fill:#ffd022;}.cls-11{fill:#f1b119;}.cls-12{fill:#ffe37a;}.cls-13{fill:#4b78ff;}.cls-14{fill:#ffeec4;}.cls-15{fill:#ffe6a7;}.cls-16{fill:#ffd01f;}.cls-17{fill:#dce5ff;}.cls-18{clip-path:url(#clip-path);}.cls-19{fill:#c5d4ff;}.cls-20{fill:#6f93ff;}.cls-21{fill:#263c80;}.cls-22{fill:#ffc900;}.cls-23{fill:#f3f6ff;}.cls-24{fill:#7fd0ff;}.cls-25{clip-path:url(#clip-path-2);}.cls-26{fill:#c2d2ff;fill-rule:evenodd;}.cls-27{fill:#3b4cc4;}</style><clipPath id="clip-path"><path class="cls-1" d="M145.42,357.84c-11.38-6.52-11.42-17.28-.09-23.9s29.94-6.7,41.37-.18,11.46,17.29.09,23.91S156.8,364.37,145.42,357.84Z"/></clipPath><clipPath id="clip-path-2"><ellipse class="cls-2" cx="382.32" cy="233.66" rx="34.12" ry="59.1" transform="translate(-65.61 222.47) rotate(-30)"/></clipPath></defs><title>Mesa de trabajo 1</title><path class="cls-3" d="M180.77,245.65l50.37-23.74,38.28,22.16,10.16,5.59-.1,4.67-86.23,48.74Z"/><path class="cls-3" d="M139.66,265.05c.09-.06,28.39-13.41,53.49-25.24V303c-2.11-1.23-35.39-20.62-51.35-29.87a4.76,4.76,0,0,1-2.37-4.13Z"/><path class="cls-3" d="M224.93,218a7.38,7.38,0,0,0-7.36,0l-76.13,43.38a3.84,3.84,0,0,0,0,6.65l52.24,30,85.9-48.42Z"/><polygon class="cls-3" points="232.38 258.96 202.06 241.53 185.71 250.61 216.4 268.4 232.38 258.96"/><path class="cls-4" d="M180.77,245.65l50.37-23.74,38.28,22.16,10.16,5.59-.1,4.67-86.23,48.74Z"/><path class="cls-5" d="M139.66,265.05c.09-.06,28.39-13.41,53.49-25.24V303c-2.11-1.23-35.39-20.62-51.35-29.87a4.76,4.76,0,0,1-2.37-4.13Z"/><path class="cls-6" d="M224.93,218a7.38,7.38,0,0,0-7.36,0l-76.13,43.38a3.84,3.84,0,0,0,0,6.65l52.24,30,85.9-48.42Z"/><polygon class="cls-7" points="232.38 258.96 202.06 241.53 185.71 250.61 216.4 268.4 232.38 258.96"/><path class="cls-8" d="M128.15,239.21c.15-.12,88.84-41.91,88.84-41.91l37.19,21.53,9.86,5.42-.1,4.54L180.2,276.13s-34-19.8-50-29.07a4.64,4.64,0,0,1-2.31-4Z"/><path class="cls-9" d="M128.15,239.21c.08-.07,27.57-13,51.94-24.52v61.38c-2-1.19-34.36-20-49.86-29a4.64,4.64,0,0,1-2.31-4Z"/><path class="cls-5" d="M211,193.52a7.14,7.14,0,0,0-7.15,0l-73.93,42.13a3.73,3.73,0,0,0,0,6.46l50.73,29.17,83.43-47Z"/><path class="cls-8" d="M126.91,229.92c.16-.11,88.84-41.9,88.84-41.9l37.19,21.52L262.8,215l-.1,4.54L179,266.85s-34-19.8-50-29.07a4.64,4.64,0,0,1-2.31-4Z"/><path class="cls-9" d="M126.91,229.92c.09-.06,27.57-13,51.94-24.51v61.38c-2-1.19-34.36-20-49.86-29a4.64,4.64,0,0,1-2.31-4Z"/><path class="cls-5" d="M209.72,184.24a7.14,7.14,0,0,0-7.15,0l-73.93,42.13a3.73,3.73,0,0,0,0,6.46L179.37,262l83.43-47Z"/><path class="cls-8" d="M133.1,225.59c.15-.11,88.84-41.9,88.84-41.9l37.19,21.52,9.86,5.43-.1,4.54-83.74,47.33s-34-19.79-50-29.06a4.64,4.64,0,0,1-2.31-4Z"/><path class="cls-9" d="M133.1,225.59c.08-.06,27.57-13,51.94-24.51v61.37c-2-1.19-34.36-20-49.86-29a4.64,4.64,0,0,1-2.31-4Z"/><path class="cls-5" d="M215.91,179.91a7.14,7.14,0,0,0-7.15,0L134.83,222a3.73,3.73,0,0,0,0,6.46l50.73,29.18,83.43-47Z"/><polygon class="cls-10" points="466.69 377.24 433.97 386.31 433.83 404.33 466.34 423.12 498.97 404.03 498.97 394.34 498.97 393.78 498.97 386.07 466.69 377.24"/><polygon class="cls-11" points="466.3 423.12 498.97 404.03 498.97 386.04 465.82 386.93 466.3 423.12"/><polygon class="cls-12" points="433.93 386.32 466.02 404.75 498.92 386.07 466.95 366.94 433.93 386.32"/><path class="cls-13" d="M225.25,308.46c-.77.47-4.36-5.42-3.59-5.89l86.72-52.36,3.85,1.95-.52,3.55Z"/><path class="cls-14" d="M225.25,308.46s.95-1.34-.55-3.66c-1.61-2.51-3-2.23-3-2.23-.77.47-.53,2.26.4,3.79S224.48,308.93,225.25,308.46Z"/><path class="cls-15" d="M311.8,255.82a6.77,6.77,0,0,0-.84-2.89l-.12-.21a8.78,8.78,0,0,0-2.46-2.51l11.91-3.41Z"/><path d="M316.33,251.14c2-2.2,4-4.34,4-4.34s-2.79.74-5.67,1.53Z"/><path class="cls-6" d="M256.13,327.38c-.76.46-4.35-5.43-3.58-5.89l86.72-52.37,3.84,2-.51,3.55Z"/><path class="cls-14" d="M256.13,327.38s.95-1.34-.55-3.67c-1.61-2.5-3-2.23-3-2.22-.77.46-.54,2.25.4,3.79S255.37,327.84,256.13,327.38Z"/><path class="cls-15" d="M342.68,274.74a6.66,6.66,0,0,0-.84-2.9,2.25,2.25,0,0,0-.12-.21,8.68,8.68,0,0,0-2.45-2.51l11.9-3.4Z"/><path d="M347.21,270.05c2-2.19,4-4.33,4-4.33s-2.79.73-5.67,1.53Z"/><path class="cls-16" d="M240.6,318.48c-.77.47-4.36-5.42-3.59-5.88l86.72-52.37,3.85,2-.52,3.55Z"/><path class="cls-14" d="M240.6,318.48s1-1.33-.55-3.66c-1.61-2.5-3-2.23-3-2.22-.77.46-.53,2.25.41,3.79S239.83,319,240.6,318.48Z"/><path class="cls-15" d="M327.15,265.84a6.8,6.8,0,0,0-.84-2.89l-.12-.21a8.78,8.78,0,0,0-2.46-2.51l11.91-3.4Z"/><path d="M331.68,261.16c2-2.19,4-4.33,4-4.33s-2.79.73-5.67,1.53Z"/><path class="cls-1" d="M139.71,367.73c-7.31-4.23-11-9.81-11-15.39v-6.25s6-6.28,11-9.15c14.62-8.47,38.59-8.48,53.27,0,4.51,2.6,11,9.59,11,9.59s0,3.75,0,5.95c-.07,5.53-3.73,11.05-11,15.24C178.31,376.18,154.34,376.19,139.71,367.73Z"/><path class="cls-17" d="M139.71,361.77c-14.62-8.46-14.62-22.31,0-30.78s38.59-8.48,53.27,0,14.68,22.31,0,30.78S154.34,370.24,139.71,361.77Z"/><path class="cls-1" d="M145.42,357.84c-11.38-6.52-11.42-17.28-.09-23.9s29.94-6.7,41.37-.18,11.46,17.29.09,23.91S156.8,364.37,145.42,357.84Z"/><g class="cls-18"><path class="cls-19" d="M145.7,361c-11.38-6.53-11.42-17.28-.09-23.9s29.94-6.7,41.37-.18,11.47,17.29.09,23.91S157.08,367.49,145.7,361Z"/></g><polygon class="cls-17" points="138.17 355.04 120.4 365.28 133.79 373 151.16 362.6 138.17 355.04"/><polygon class="cls-20" points="147.27 365.2 147.27 371.16 134.99 378.91 133.94 373 147.27 365.2"/><path class="cls-13" d="M136.88,377.05c0-4.18-3.95-9.87-8.78-12.64-2.61-1.5-5-1.87-6.59-1.23-.41.16-39.87,23.06-39.87,23.06l13.77,17.32L134.54,381A4.16,4.16,0,0,0,136.88,377.05Z"/><path class="cls-21" d="M88.41,387.37c-4.83-2.77-8.81-1.66-8.84,2.47s3.91,9.82,8.78,12.64,8.83,1.71,8.83-2.47S93.24,390.15,88.41,387.37Z"/><path class="cls-1" d="M220.85,362.39c.18-.13,198.85,38.93,198.85,38.93v9.39l-59.76,33.65a11.38,11.38,0,0,1-11.4,0s-107-62.29-125.33-72.95a5.29,5.29,0,0,1-2.63-4.6Z"/><path class="cls-19" d="M419.7,401.32,281.52,320.75l-58.68,37.58a4.27,4.27,0,0,0,0,7.39l127.85,74.36a9,9,0,0,0,9,0Z"/><path class="cls-7" d="M385.21,401l6.9,4c2.92-1.84,4.4-2.78,7.4-4.71l-6.93-4C389.6,398.19,388.13,399.12,385.21,401Z"/><path class="cls-7" d="M375,395.05l6.89,4c2.91-1.83,4.38-2.76,7.36-4.67l-6.93-4C379.4,392.3,377.93,393.22,375,395.05Z"/><path class="cls-7" d="M364.86,389.14l6.9,4c2.89-1.82,4.35-2.74,7.3-4.63l-6.92-4Z"/><path class="cls-7" d="M354.69,383.23l6.89,4c2.88-1.81,4.33-2.73,7.26-4.59l-6.92-4Z"/><path class="cls-7" d="M344.51,377.32l6.89,4,7.22-4.56-6.93-4Z"/><path class="cls-7" d="M334.33,371.41l6.9,4,7.17-4.52-6.93-4Z"/><path class="cls-7" d="M324.16,365.5l6.89,4,7.12-4.48-6.92-4Z"/><path class="cls-7" d="M314,359.6l6.89,4,7.08-4.44-6.93-4Z"/><path class="cls-7" d="M303.8,353.69l6.9,4c2.8-1.76,4.2-2.64,7-4.4l-6.93-4C308,351.06,306.59,351.93,303.8,353.69Z"/><path class="cls-7" d="M293.63,347.78l6.89,4,7-4.36-6.92-4C297.79,345.17,296.4,346,293.63,347.78Z"/><path class="cls-7" d="M283.45,341.87l6.9,4c2.77-1.74,4.15-2.6,6.93-4.32l-6.93-4C287.59,339.27,286.21,340.14,283.45,341.87Z"/><path class="cls-7" d="M273.28,336l6.89,4c2.76-1.73,4.13-2.59,6.89-4.28l-6.93-4C277.39,333.38,276,334.24,273.28,336Z"/><path class="cls-7" d="M375.15,407.27l6.86,4c2.84-1.76,4.27-2.65,7.16-4.47l-6.88-4Z"/><path class="cls-7" d="M365,401.34l6.87,4,7.13-4.47-6.88-4Z"/><path class="cls-7" d="M354.87,395.42l6.87,4,7.11-4.46L362,391Z"/><path class="cls-7" d="M344.73,389.49l6.87,4,7.09-4.44-6.89-4Z"/><path class="cls-7" d="M334.59,383.56l6.87,4,7.07-4.44-6.89-4Z"/><path class="cls-7" d="M324.45,377.64l6.87,4,7-4.43-6.88-4Z"/><path class="cls-7" d="M314.31,371.71l6.87,4,7-4.43-6.88-4Z"/><path class="cls-7" d="M304.18,365.79l6.86,4c2.79-1.76,4.19-2.65,7-4.41l-6.89-4C308.36,363.14,307,364,304.18,365.79Z"/><path class="cls-7" d="M294,359.86l6.87,4c2.78-1.77,4.17-2.65,7-4.41l-6.89-4Z"/><path class="cls-7" d="M283.9,353.93l6.87,4,6.94-4.4-6.88-4Z"/><path class="cls-7" d="M273.76,348l6.87,4,6.92-4.39-6.88-4Z"/><path class="cls-7" d="M263.62,342.08l11.52,6.73,6.91-4.38-11.54-6.72C267.76,339.44,266.39,340.32,263.62,342.08Z"/><path class="cls-7" d="M360.8,410.72l11.4,6.66,7-4.33-11.4-6.66Z"/><path class="cls-7" d="M355.21,407.46l6.86,4,7-4.33-6.86-4Z"/><path class="cls-7" d="M345.07,401.54l6.87,4,7-4.35-6.86-4Z"/><path class="cls-7" d="M334.94,395.63l6.87,4,7-4.36-6.87-4Z"/><path class="cls-7" d="M324.81,389.72l6.86,4,7-4.37-6.86-4Z"/><path class="cls-7" d="M314.67,383.8l6.87,4,7-4.38-6.87-4Z"/><path class="cls-7" d="M304.54,377.89l6.87,4,7-4.39-6.87-4Z"/><path class="cls-7" d="M294.41,372l6.86,4,7-4.4-6.86-4Z"/><path class="cls-7" d="M284.27,366.06l6.87,4,7-4.41-6.87-4Z"/><path class="cls-7" d="M274.14,360.14l6.87,4,6.95-4.42-6.86-4Z"/><path class="cls-7" d="M264,354.23l6.86,4,7-4.43-6.86-4Z"/><path class="cls-7" d="M253.88,348.32l6.86,4,7-4.44-6.87-4Z"/><path class="cls-7" d="M355.72,419.39l6.88,4,6.83-4.27-6.87-4C359.81,416.82,358.44,417.68,355.72,419.39Z"/><path class="cls-7" d="M345.56,413.5l6.89,4c2.72-1.72,4.09-2.57,6.84-4.29l-6.87-4Z"/><path class="cls-7" d="M335.41,407.61l6.88,4,6.86-4.31-6.87-4Z"/><path class="cls-7" d="M325.25,401.72l6.88,4,6.89-4.32-6.87-4C329.38,399.12,328,400,325.25,401.72Z"/><path class="cls-7" d="M315.09,395.83l6.88,4,6.91-4.34-6.87-4Z"/><path class="cls-7" d="M304.93,389.94l6.88,4,6.93-4.36-6.87-4Z"/><path class="cls-7" d="M294.77,384.05l6.88,4,7-4.38-6.87-4Z"/><path class="cls-7" d="M284.61,378.15l6.88,4,7-4.4-6.86-4Z"/><path class="cls-7" d="M274.45,372.26l6.89,4,7-4.41-6.87-4C278.67,369.61,277.27,370.49,274.45,372.26Z"/><path class="cls-7" d="M264.29,366.37l6.89,4,7-4.42-6.87-4C268.52,363.71,267.12,364.6,264.29,366.37Z"/><path class="cls-7" d="M249.75,357.94,261,364.47c2.83-1.78,4.23-2.66,7-4.44l-11.25-6.56C254,355.26,252.59,356.15,249.75,357.94Z"/><path class="cls-7" d="M244,354.59l6.88,4c2.84-1.78,4.25-2.68,7.06-4.46l-6.87-4C248.24,351.91,246.83,352.8,244,354.59Z"/><path class="cls-7" d="M344.91,426.28l6.93,4c2.68-1.74,4-2.6,6.72-4.32l-6.89-4C349,423.68,347.61,424.54,344.91,426.28Z"/><path class="cls-7" d="M334.69,420.41l6.93,4c2.7-1.75,4.05-2.61,6.76-4.33l-6.89-4Z"/><path class="cls-7" d="M324.47,414.54l6.92,4c2.73-1.75,4.09-2.61,6.82-4.34l-6.9-4C328.57,411.92,327.2,412.79,324.47,414.54Z"/><path class="cls-7" d="M263.13,379.32l58,33.33c2.74-1.75,4.11-2.62,6.86-4.35l-57.79-33.4C267.41,376.67,266,377.55,263.13,379.32Z"/><path class="cls-7" d="M252.9,373.45l6.93,4L267,373l-6.9-4C257.22,370.8,255.79,371.68,252.9,373.45Z"/><path class="cls-7" d="M242.68,367.58l6.93,4c2.89-1.76,4.32-2.65,7.17-4.42l-6.9-4C247,364.92,245.58,365.81,242.68,367.58Z"/><path class="cls-7" d="M232.46,361.71l6.92,4c2.91-1.76,4.36-2.65,7.22-4.43l-6.9-4C236.83,359.05,235.38,359.94,232.46,361.71Z"/><path class="cls-1" d="M288.51,441.67c-.18-.14-111.33-54.24-111.33-54.24l-56.06,32.38-6,6.74V431a5,5,0,0,0,2.5,4.33l92,53.17a11.4,11.4,0,0,0,11.41,0s46.82-27.22,65.13-37.82a5.3,5.3,0,0,0,2.64-4.59Z"/><path class="cls-17" d="M117.92,421.31l66.15-38.21a8.16,8.16,0,0,1,8.18,0l94.28,54.49a4.26,4.26,0,0,1,0,7.38l-67.65,39.24a9,9,0,0,1-9,0l-91.94-53.14A5.64,5.64,0,0,1,117.92,421.31Z"/><polygon class="cls-13" points="120.87 428.66 193.06 387.35 277.74 436.06 205.56 477.39 120.87 428.66"/><path class="cls-7" d="M244.36,458.53c-1.63,1-1.52,2.65.21,3.72a6.44,6.44,0,0,0,6.07.13c1.63-1,1.58-2.59-.15-3.66A6.51,6.51,0,0,0,244.36,458.53Z"/><path class="cls-1" d="M415.26,455.36a6.7,6.7,0,0,1-6.71,0s-4.64-2.28-15.41-8.51a3.13,3.13,0,0,1-1.55-2.71l.15-2.58c.11-.08,48.39-22,48.39-22l10.08,5.31,3.54,4v2.6a2.93,2.93,0,0,1-1.47,2.55"/><path class="cls-1" d="M452.09,426.65l-16-8.74a4.81,4.81,0,0,0-4.81,0l-38.36,22.16a2.5,2.5,0,0,0,0,4.34l16.89,9.35a5.33,5.33,0,0,0,5.3,0l37-21.36A3.32,3.32,0,0,0,452.09,426.65Z"/><path class="cls-17" d="M452.09,424.67l-16-8.74a4.91,4.91,0,0,0-2-.63c-.95-.08-8-.79-18.88,4.79s-22.27,18-22.27,18c-1.32,1.59-1.68,3.37,0,4.34l16.89,9.34a5.28,5.28,0,0,0,5.3,0s10.28-9.72,17.26-14.12,19.73-7.24,19.73-7.24A3.31,3.31,0,0,0,452.09,424.67Z"/><path class="cls-1" d="M403.77,440.72a2.34,2.34,0,0,0,2.78,1.68c1.41-.16,2.45-1.17,2.33-2.26s-1.37-1.83-2.78-1.68S403.65,439.63,403.77,440.72Z"/><path class="cls-11" d="M153.3,303.13A19.28,19.28,0,0,0,146,288.07v-.14l-.25.05a6.54,6.54,0,0,0-2.33-1.48v2.69l-89,49.69L58,363.46l89.51-52.07A8.8,8.8,0,0,0,153.3,303.13Z"/><path class="cls-12" d="M63.3,355.7A8.83,8.83,0,0,1,50,363.32L.83,334.55v-3l2,1.13L4.43,313.2.83,311v-3l52.93,31A19.29,19.29,0,0,1,63.3,355.7Z"/><path class="cls-7" d="M61.22,354.25h0a7.26,7.26,0,0,1-10.92,6.26L2.79,332.72v-20.5l51.65,30.21A13.7,13.7,0,0,1,61.22,354.25Z"/><polygon class="cls-17" points="49.95 344.75 2.79 317.16 2.79 320.14 49.95 347.73 49.95 344.75"/><polygon class="cls-13" points="29.08 332.54 18.89 326.57 18.89 343.7 23.67 341.48 29.08 349.67 29.08 332.54"/><polygon class="cls-22" points="146.03 287.93 90.03 255.49 0.83 308.09 55.9 340.38 146.03 287.93"/><path class="cls-3" d="M43.21,276.23l50.37-23.74,38.28,22.16L142,280.24l-.11,4.67L55.69,333.65Z"/><path class="cls-3" d="M2.1,295.64c.09-.07,28.39-13.41,53.48-25.24v63.19C53.48,332.37,20.2,313,4.24,303.73a4.77,4.77,0,0,1-2.38-4.14Z"/><path class="cls-3" d="M87.37,248.59a7.36,7.36,0,0,0-7.36,0L3.88,292a3.84,3.84,0,0,0,0,6.65l52.23,30L142,280.24Z"/><polygon class="cls-3" points="94.82 289.55 64.49 272.11 48.15 281.19 78.84 298.99 94.82 289.55"/><path class="cls-4" d="M43.21,276.23l50.37-23.74,38.28,22.16L142,280.24l-.11,4.67L55.69,333.65Z"/><path class="cls-5" d="M2.1,295.64c.09-.07,28.39-13.41,53.48-25.24v63.19C53.48,332.37,20.2,313,4.24,303.73a4.77,4.77,0,0,1-2.38-4.14Z"/><path class="cls-6" d="M87.37,248.59a7.36,7.36,0,0,0-7.36,0L3.88,292a3.84,3.84,0,0,0,0,6.65l52.23,30L142,280.24Z"/><polygon class="cls-7" points="94.82 289.55 64.49 272.11 48.15 281.19 78.84 298.99 94.82 289.55"/><path class="cls-8" d="M10.8,283.85C11,283.73,99.65,242,99.65,242l37.18,21.52,9.87,5.42-.11,4.54L62.85,320.77s-34-19.8-50-29.07a4.61,4.61,0,0,1-2.31-4Z"/><path class="cls-9" d="M10.8,283.85c.09-.07,27.58-13,52-24.52v61.38c-2-1.19-34.37-20-49.86-29a4.61,4.61,0,0,1-2.31-4Z"/><path class="cls-5" d="M93.62,238.16a7.14,7.14,0,0,0-7.15,0L12.53,280.29a3.73,3.73,0,0,0,0,6.46l50.73,29.17,83.44-47Z"/><polygon class="cls-7" points="74.15 299.85 37.7 278.57 34.77 280.13 71.03 301.34 74.15 299.85"/><polygon class="cls-7" points="81.8 296.02 45.35 274.75 42.42 276.31 78.68 297.52 81.8 296.02"/><polygon class="cls-7" points="123.85 269.26 87.4 247.99 84.47 249.55 120.73 270.76 123.85 269.26"/><path class="cls-11" d="M418.18,124l36,21.21a33.18,33.18,0,0,0,5.26-4.71c1.95-2.16,3.12-5.64,3.12-10.16V116.17c0-12.4-1.59-20.68-14.46-27.62l-29.9-17.27c-4.52-2.6-8.55-2.17-11.2.62-2,2.14-3.58,4-3.58,4l.32,20.4C403.72,107,410.19,119.36,418.18,124Z"/><path class="cls-10" d="M415,127.16l29.91,17.26c8,4.61,14.45-.28,14.45-10.92V119.35c0-10.64-2-21.53-14.45-27.62L415,74.47c-8-4.61-14.46.28-14.46,10.92V99.54C400.53,110.18,407,122.55,415,127.16Z"/><polyline class="cls-10" points="446.73 140.3 446.73 152.41 433.15 132.5"/><polygon class="cls-7" points="411.94 91.8 447.94 112.58 447.94 109.12 411.94 88.33 411.94 91.8"/><polygon class="cls-7" points="411.94 100.79 447.94 121.57 447.94 118.1 411.94 97.32 411.94 100.79"/><polygon class="cls-7" points="424.69 117.13 447.94 130.56 447.94 127.09 424.69 113.67 424.69 117.13"/><path class="cls-4" d="M388.53,80.41l-33.92-18.5c-8-4.61-14.46-17-14.46-27.62l-.25-18.23a24.46,24.46,0,0,1,4.48-4.58c2.62-2,6.23-2.05,10.23.25l27.1,15.65C392.14,33.68,396.17,42,396.17,55V66.63a16.33,16.33,0,0,1-2.31,9.12C391.29,79.58,388.53,80.41,388.53,80.41Z"/><path class="cls-6" d="M379.16,79.9l-27.1-15.65c-8-4.61-14.46-17-14.46-27.62V25c0-10.65,6.47-15.54,14.46-10.93l27.1,15.65c13.83,7.79,14.46,17,14.46,27.62V69C393.62,79.62,387.15,84.51,379.16,79.9Z"/><polyline class="cls-6" points="349.88 57.47 349.88 69.43 362.81 65.18"/><polygon class="cls-23" points="382.75 49.98 348.47 30.18 348.47 26.88 382.75 46.67 382.75 49.98"/><polygon class="cls-23" points="382.75 58.53 348.47 38.74 348.47 35.44 382.75 55.23 382.75 58.53"/><polygon class="cls-23" points="382.75 67.09 348.47 47.3 348.47 43.99 382.75 63.79 382.75 67.09"/><path class="cls-7" d="M339.48,343.13c.1-.06,29.44-14.35,57.95-28.24,14.19,9.16,29,17.3,43.91,25.37q6.77,4.44,13.55,8.85l-53.7,31a11.37,11.37,0,0,1-11.38,0s-29.67-17.46-47.95-28a5.31,5.31,0,0,1-2.63-4.59Z"/><path class="cls-1" d="M341.46,339.07l49.39-28.54c16.15,11,33.32,20.42,50.54,29.76l9.91,6.49L400.92,375.9a9,9,0,0,1-9,0l-50.46-29.45A4.26,4.26,0,0,1,341.46,339.07Z"/><path class="cls-1" d="M486.61,374.22l-10.47,8L285.28,93.32c0-3,3-6.47,6-8a15.64,15.64,0,0,1,14.86.44L480.85,185.6a16,16,0,0,1,8,13.82l.41,169.35A6.84,6.84,0,0,1,486.61,374.22Z"/><path class="cls-19" d="M468.78,382.12,295.94,282.9a20.5,20.5,0,0,1-10.28-17.71l-.38-171.87a6,6,0,0,1,9-5.21l179.9,103.06a12.61,12.61,0,0,1,6.35,10.92l.38,173A8.07,8.07,0,0,1,468.78,382.12Z"/><path class="cls-21" d="M285.64,247.82l-.36-154.5a6,6,0,0,1,9-5.21l179.9,103.06a12.61,12.61,0,0,1,6.35,10.92L480.85,362Z"/><path class="cls-7" d="M375.91,319.75c2.66-.3,4.5-3.34,4.11-6.79s-2.86-6-5.52-5.71-4.5,3.34-4.11,6.79S373.25,320.05,375.91,319.75Z"/><polygon class="cls-7" points="293.31 97.36 471.91 199.87 472.28 343.73 293.31 239.46 293.31 97.36"/><polygon class="cls-1" points="293.31 209.18 471.91 311.69 472.28 343.73 293.31 239.46 293.31 209.18"/><ellipse class="cls-24" cx="382.32" cy="233.66" rx="34.12" ry="59.1" transform="translate(-65.61 222.47) rotate(-30)"/><ellipse class="cls-2" cx="382.32" cy="233.66" rx="34.12" ry="59.1" transform="translate(-65.61 222.47) rotate(-30)"/><g class="cls-25"><path class="cls-26" d="M346.1,179.5a6,6,0,0,1-2.63-2.36,25.41,25.41,0,0,0-1.9-3c-.6-.78-1.52-2.06-2.05-2.86a6.33,6.33,0,0,0-3.61-1.93c-1.46-.27-2.59.33-2.52,1.33s-.15,1.6-.51,1.32a7.17,7.17,0,0,1-1.17-1.27.81.81,0,0,0-1.13-.28c-.34.26-.25,1,.19,1.7a4.52,4.52,0,0,0,1.36,1.44c.32.12.47.63.34,1.12s-.77.58-1.42.19-1.44-.52-1.74-.27a2.29,2.29,0,0,0-.26,1.85,8.82,8.82,0,0,0,1.21,2.74,3.83,3.83,0,0,0,2.67,1.42,4.77,4.77,0,0,1,3.1,2,32.36,32.36,0,0,1,2.76,6.46l.25.79a30.4,30.4,0,0,1,1.37,7.78c0,1.81-.13,4.3-.23,5.53a14.72,14.72,0,0,0,.74,4.94l2.11,6.12c.65,1.89,1,2.26.79.82s.11-1.29.74.31,1.4,3.72,1.72,4.71a14.61,14.61,0,0,0,3.24,4.4,36.93,36.93,0,0,1,4.61,5.66,14.81,14.81,0,0,0,2.92,3.61c.55.31.79,1.48.55,2.62a35.46,35.46,0,0,0-.58,3.66,10.77,10.77,0,0,0,1,4.08,30.35,30.35,0,0,0,2.37,4.24c.69,1,1.3,3.75,1.36,6.16s.13,6.14.17,8.29a58.14,58.14,0,0,0,.54,6.86,11.89,11.89,0,0,0,1.84,4.65,7.22,7.22,0,0,0,2.43,2c.59.18.41-.61-.39-1.75a6.12,6.12,0,0,1-1.22-3.51c.14-.78.36-2.34.49-3.48a3.22,3.22,0,0,1,2.11-2.57,6,6,0,0,0,3-2.94c.65-1.33,1.85-2.26,2.67-2.08s1.81-.92,2.2-2.45.89-3.39,1.12-4.13-.78-3.1-2.25-5.23l-2.13-3.09a42.93,42.93,0,0,0-6.27-6.93l-1.52-1.29c-2-1.68-4.2-3.13-4.95-3.21a6.84,6.84,0,0,1-2.22-.66,4.25,4.25,0,0,1-1.32-1.35,3.39,3.39,0,0,1-.33-1.84c.07-.55-.52-1.38-1.32-1.84a5.94,5.94,0,0,1-2.05-2.1,22.43,22.43,0,0,0-1.6-2.64,5,5,0,0,1-.71-3.19,1.64,1.64,0,0,1,2-1.36,25.41,25.41,0,0,1,3.77,1.38l.33.68.34.69c.16,1.48.59,2.68,1,2.66s.56-.67.42-1.46a2.93,2.93,0,0,1,1-2.44,20.32,20.32,0,0,0,2.14-2.1,3.37,3.37,0,0,1,2.69-.87,22.14,22.14,0,0,0,2.93.18c.64,0,.36-.94-.62-2s-1.44-2.18-1-2.44,1.5.19,2.42,1,1.92,1.22,2.21.95.09-1.47-.43-2.68a17.19,17.19,0,0,1-1.16-4c-.12-1-.54-1.44-.95-1s-.81.06-.9-.8a8.09,8.09,0,0,0-1.46-3.29c-.71-.94-1.6-1.09-2-.32a5,5,0,0,0-.55,2.42,1,1,0,0,1-.63,1.21c-.44.09-.92.78-1.07,1.51s-.45.86-.65.26a4.46,4.46,0,0,1-.22-1.93c.08-.46-.71-2.15-1.77-3.73s-1.79-3.26-1.63-3.72a2.27,2.27,0,0,1,1.56-1.13,19.68,19.68,0,0,0,2.35-.74,5.09,5.09,0,0,1,2-.35c.5,0,.78-.51.62-1.24a4.43,4.43,0,0,0-2-2.31,4,4,0,0,0-2.54-.66c-.43.17-1.52-.45-2.43-1.38s-2.24-2.44-3-3.35a54,54,0,0,1-3.07-4.55A10.41,10.41,0,0,0,346.1,179.5Z"/><path class="cls-26" d="M374.38,213.86a19.54,19.54,0,0,1-1.37-4.2c-.44-1.83-.4-3.68.08-4.12a1.94,1.94,0,0,0,.12-2.21,7.89,7.89,0,0,1-.48-3.83,6.49,6.49,0,0,0-.37-3.35,5.94,5.94,0,0,0-1.83-1.58l0,0,0-.05a13.84,13.84,0,0,1-.78-3.05c0-.49.54-.73,1.22-.53s1.3,0,1.38-.4,1.24-.73,2.57-.71a4.7,4.7,0,0,1,3.39,1.4c.54.76,1.36,1,1.84.58a2.41,2.41,0,0,1,2.43,0,7.27,7.27,0,0,1,2.58,2.54c.56,1,.74,2.1.39,2.5s.05,1.09.89,1.54a1.5,1.5,0,0,1,.44,2.28,10.12,10.12,0,0,0-1.46,3.67c-.2,1.22-.67,3.25-1,4.51a4,4,0,0,1-3.26,2.56,9.55,9.55,0,0,0-4.43,1.83C375.79,214,374.7,214.33,374.38,213.86Z"/><path class="cls-26" d="M365.94,188.3a1.42,1.42,0,0,0,2.44.25,6.82,6.82,0,0,1,3.67-1.73,8.72,8.72,0,0,0,3.23-.89,1.5,1.5,0,0,0,.12-2.12A9.93,9.93,0,0,0,373,181.5a12.6,12.6,0,0,0-3.68-1.3,4.71,4.71,0,0,0-3.17.39,5.38,5.38,0,0,0-1,3.34A11,11,0,0,0,365.94,188.3Z"/><path class="cls-26" d="M360.33,184.34c.28.23.79.08,1.12-.33s.06-1.24-.61-1.84-1.17-.46-1.12.32A3.19,3.19,0,0,0,360.33,184.34Z"/><path class="cls-26" d="M362,191.66a3.12,3.12,0,0,1,.43-1.89c.35-.62,1.52-.31,2.6.68a13.7,13.7,0,0,1,3,5,34.21,34.21,0,0,1,1.27,5.31c.14,1.16-.21,2-.78,1.84a4,4,0,0,1-1.89-1.87c-.49-.88-.58-1.82-.22-2.09a2.13,2.13,0,0,0,.23-2,6.5,6.5,0,0,0-2.42-2.86A6.62,6.62,0,0,1,362,191.66Z"/><path class="cls-26" d="M355.91,188c.74.25,1.2,0,1-.52a2.49,2.49,0,0,1,.22-1.82,1.33,1.33,0,0,0,.08-1.39c-.24-.3-.65-.23-.89.15s-.75.07-1.11-.7a16.59,16.59,0,0,1-1-2.71,5.33,5.33,0,0,0-1.13-2.08,1.45,1.45,0,0,0-1.7-.19,2.45,2.45,0,0,0-1,1.32,1.54,1.54,0,0,0,.72,1.33,2,2,0,0,1,.89,1.27,1.3,1.3,0,0,1-.25.91c-.14.11.44,1.05,1.29,2.09A8.77,8.77,0,0,0,355.91,188Z"/><path class="cls-26" d="M355.13,180.7h0c.06-.94.37-1.83.7-2a.88.88,0,0,1,1,.3,5,5,0,0,1,.59,1.74c.09.64.44.77.77.29s.71-.3.83.39a2,2,0,0,1-.37,1.72c-.33.25-2-1-3.63-2.84Z"/><path class="cls-26" d="M359.66,188.9l.2.34a9.31,9.31,0,0,0,.65-2.41,1.74,1.74,0,0,0-.71-1.44,1.36,1.36,0,0,0-1.45.06,2.06,2.06,0,0,0-.46,1.82,2.36,2.36,0,0,0,1,1.62l.75.34"/><path class="cls-26" d="M438.75,304.89a3,3,0,0,1-.4-1.73,10.49,10.49,0,0,0,.06-2.28c-.06-.86-.13-2.93-.16-4.6l.26.07c.27.07,2.33.79,2.58.89l.24.09c1.11-.46,2.73-1.1,3.6-1.41l.15.31.16.32c.53.62,1.33.84,1.76.48a1.12,1.12,0,0,1,1.34-.19,1.87,1.87,0,0,1,.53,1.32,5.34,5.34,0,0,0,1,2.34c.57.8,1.31.78,1.64-.05s.81-.82,1.07,0a38.51,38.51,0,0,1,.87,5.29l.2.1.2.1a5.52,5.52,0,0,1,1.88,3.91,12.4,12.4,0,0,1-1.14,4.13c-.55,1.08-1.47,2-2,2.07a4,4,0,0,1-2.46-1.38,9,9,0,0,1-1.92-3.36,6,6,0,0,0-1-2.28c-.29-.24-1-.89-1.67-1.45a7.25,7.25,0,0,0-2.84-1.38,16.72,16.72,0,0,0-2.54-.34A1.89,1.89,0,0,1,438.75,304.89Z"/><path class="cls-26" d="M454.45,242.89c-.37-.42-.5-.75-.28-.72s.37-.2.35-.5.35-.32.82,0,.81-.17.76-1a8.29,8.29,0,0,0-1.34-3.31v-.14c0-.15-2.84-2.55-2.93-2.63s-3.8-2.33-4-2.43l-.23-.1a1.47,1.47,0,0,1-1.86,1,4.76,4.76,0,0,1-2.55-1.95,3.32,3.32,0,0,0-2.81-1.43l-.07.1-.08.1a11.83,11.83,0,0,0-3.15-3.16c-.8-.41-1.63-.6-1.84-.42a1.94,1.94,0,0,0-.26,1.41c.07.6-.42.78-1.09.39s-1.14-.4-1.05,0-.18.2-.6-.36a8.76,8.76,0,0,1-1.08-2,3.59,3.59,0,0,0-1.43-1.62c-.61-.36-1.26-.49-1.44-.31s-.48.09-.67-.22a4.15,4.15,0,0,0-1.71-1.07,2.77,2.77,0,0,0-2-.09c-.36.23-.57-.51-.47-1.64a7.5,7.5,0,0,0-1.05-4l-.11-.14-.12-.14c-.89-.76-1.91-1.07-2.27-.71a5.13,5.13,0,0,1-2.07,1,1.8,1.8,0,0,0-1.39,1.62c0,.71-.43,1.19-1,1.07s-.4.74.33,1.9,1.16,2.22,1,2.35-.63-.33-1-1a3.34,3.34,0,0,0-1.66-1.57c-.56-.18-.62.63-.12,1.78a8.75,8.75,0,0,1,.24,4.77H414a13.33,13.33,0,0,0-1.78-3,5.75,5.75,0,0,0-2.61-1.84c-.77-.18-2.36-.6-3.55-.94a2.76,2.76,0,0,0-2.94.65,4,4,0,0,1-1.69,1.53l-.11-.07-.11-.06c-.29-.79-.16-1.49.29-1.54s.62-.66.38-1.36a5.51,5.51,0,0,0-1.72-2.17,7.61,7.61,0,0,1-2.06-3.2l.07.07.07.07c-1.67-.79-3.5-1-4.06-.48s-1.56,1.55-2.21,2.29-1.34,1.49-1.54,1.66a2.18,2.18,0,0,0-.42,1.26,3.44,3.44,0,0,0,.28,1.58,2.81,2.81,0,0,0,1.14,1,2.44,2.44,0,0,1,1.11,1.48,3.94,3.94,0,0,0,.65,1.46c.19.18.64,0,1-.36a2.3,2.3,0,0,0,.59-1.47,8.46,8.46,0,0,0-.33-1.65,1,1,0,0,1,.25-1.16,2.13,2.13,0,0,0,.74-1.19.63.63,0,0,1,1-.41.68.68,0,0,1,.14,1.12,2.33,2.33,0,0,0-.64,1.5,5.36,5.36,0,0,0,.46,1.73,3,3,0,0,0,1.57,1.23c.62.19,1,.42.95.49a7.58,7.58,0,0,1-1.12.5,3.19,3.19,0,0,0-1.41,1.2.9.9,0,0,1-1.2.41,3.72,3.72,0,0,0-1.31-.45,3.31,3.31,0,0,1-1.35-.58,2.24,2.24,0,0,1-.73-1.72c0-.64-.1-1.09-.28-1a1.82,1.82,0,0,0-.36,1.21.73.73,0,0,1-1,.75H390a1.79,1.79,0,0,1-1.13,1.2,3.59,3.59,0,0,0-1,.27c-.15.08-.71-.14-1.26-.5l.08.14.07.14c-.26,0-.18.53.19,1.13a3,3,0,0,1,.51,1.72c-.08.35-.59.37-1.12,0a9.76,9.76,0,0,0-1.46-.77c-.28-.09-.55.39-.62,1.07a13.42,13.42,0,0,0-.07,1.9,1.24,1.24,0,0,0,.48.9,3.33,3.33,0,0,1,.73.55.66.66,0,0,0,.67.15.71.71,0,0,1,.66.08l.84.62c.29.21.53.21.53,0a2,2,0,0,1,.2-.77,3.44,3.44,0,0,1,.55-.72,6.17,6.17,0,0,1,.66-.56c.18-.13.54,0,.81.31s.62.45.79.34a2.23,2.23,0,0,1,.53-.25c.12,0,.4.29.63.72s.61,1.08.87,1.46a12.5,12.5,0,0,0,.91,1.2,2,2,0,0,1,.45,1.19c0,.38-.07.68-.16.67a.28.28,0,0,0-.25.14c-.06.09.12.18.4.21s.51-.27.53-.66.18-.5.36-.26.33.32.34.15a2.17,2.17,0,0,0-.63-1,9.05,9.05,0,0,1-1.26-1.87,6.71,6.71,0,0,1-.61-1.61c0-.22.15-.22.34,0a8.06,8.06,0,0,1,.63.87c.15.25.61.89,1,1.42a4.86,4.86,0,0,1,.85,1.58,16.27,16.27,0,0,0,.81,2.15,4,4,0,0,0,1,1.59c.18,0,.28-.21.24-.55a7.66,7.66,0,0,0-.23-1.14.44.44,0,0,1,.31-.59.69.69,0,0,1,.7.38,4.43,4.43,0,0,1,.33,1.24,4.51,4.51,0,0,0,.68,1.62A5.29,5.29,0,0,0,401,243.3a1.42,1.42,0,0,0,1,.16,1.64,1.64,0,0,1,1.11.17c.31.19.42,1.13.23,2.09l-.05.13-.05.13a2.64,2.64,0,0,1-2.33,0,7.66,7.66,0,0,1-2.07-1.52,4.07,4.07,0,0,0-1.46-1.08c-.38-.1-.65.09-.6.43s-.14.49-.42.33a4.28,4.28,0,0,1-1.06-1.19,7.31,7.31,0,0,0-1.23-1.47,14.61,14.61,0,0,1-1.35-1.29,1.43,1.43,0,0,1-.37-1.39c.16-.36-.29-1-1-1.4a6.85,6.85,0,0,0-2.3-.81,5.56,5.56,0,0,1-1.77-.47,5.86,5.86,0,0,1-1.22-.8,1,1,0,0,0-1.07,0,1.23,1.23,0,0,0-.63.87,3.37,3.37,0,0,1-.3,1.16.78.78,0,0,1-.89.49c-.32-.12-1,.24-1.58.78l-.12.11-.13.11a2.41,2.41,0,0,0-.35,1.66,3.76,3.76,0,0,1,.19,1.41,1.31,1.31,0,0,1-.86,1.09l0,.2,0,.21a24.85,24.85,0,0,0,1.39,2.74,3.76,3.76,0,0,1,.54,1.14,12.83,12.83,0,0,0,1.37,2.51c.66,1,1.35,1.79,1.54,1.75a1.53,1.53,0,0,1,.89.33,5.87,5.87,0,0,0,1.16.61,4.29,4.29,0,0,0,1.29.2,1.76,1.76,0,0,1,1.1.37,5.37,5.37,0,0,1,.86,1.17,3.27,3.27,0,0,0,1,1.09,1.69,1.69,0,0,1,.74,1,3.85,3.85,0,0,1,0,1.43,2.62,2.62,0,0,0,.2,1.56c.22.45.76,2,1.2,3.38s.66,2.68.47,2.83a6.13,6.13,0,0,0-.83,1.1l-.07.21a13.83,13.83,0,0,0,.34,2c.57,2.53,1.28,5.38,1.55,6.33s.68,2.22.9,2.8a3.35,3.35,0,0,0,2.41,1.43,3.76,3.76,0,0,0,3-.68,3.11,3.11,0,0,1,1.64-1c.36,0,.6-.59.53-1.32a2.36,2.36,0,0,1,1.13-2,2.64,2.64,0,0,0,1.26-2c0-.69,0-1.93-.06-2.75a3,3,0,0,1,1.32-2.38,12.62,12.62,0,0,0,2.69-2.65c.72-1,.65-2-.16-2.35l-.1,0-.1,0a2.65,2.65,0,0,1-1.66-1.05c-.22-.44-1-1.87-1.77-3.19a23.39,23.39,0,0,1-1.82-4c-.25-.88-.68-2.21-.95-3s-.36-1.4-.2-1.47.42.13.56.42.86,2,1.6,3.77V254c0,.19.73,1.86.73,1.86,1,2.39,2.57,4.48,3.44,4.66a13.49,13.49,0,0,0,2.87.25,3.93,3.93,0,0,0,1.74-.47,1.23,1.23,0,0,0,.16-1.23,19.59,19.59,0,0,0-.8-1.89,2.25,2.25,0,0,0-1.52-1.18,2.48,2.48,0,0,1-1.58-1.37,17.89,17.89,0,0,0-1-1.9c-.25-.36-.21-.66.07-.67s.94.67,1.46,1.51a5.8,5.8,0,0,0,1.59,1.82,2,2,0,0,1,.84.7,8.72,8.72,0,0,0,2.06,1.55,8.19,8.19,0,0,1,2.46,2.25l1.06,2c.25.47.65.83.89.8s1.09,2,1.9,4.41,1.66,4.19,1.88,3.87a9.28,9.28,0,0,0,.8-1.71,5,5,0,0,1,1.48-2,2.46,2.46,0,0,1,2-.47,4.87,4.87,0,0,1,1.73,2.54c.43,1.21,1.13,2.28,1.55,2.36s.82.79.89,1.56.14,1.81.15,2.32a5.81,5.81,0,0,0,.51,2,11.65,11.65,0,0,1,.7,1.82,6.3,6.3,0,0,0,.9,1.74c.38.52.6.39.5-.3a6.59,6.59,0,0,0-.85-2.23,12.1,12.1,0,0,1-1-1.71,2.19,2.19,0,0,1,0-1.45c.16-.39.73.08,1.26,1a4.45,4.45,0,0,0,1.64,1.88c.36.07.78-.57.92-1.43a3.89,3.89,0,0,0-.44-2.53,3.21,3.21,0,0,1-.61-1.81c0-.46.53-.66,1.06-.44a5.75,5.75,0,0,0,2.54.14,4.18,4.18,0,0,0,1.94-.74,3.26,3.26,0,0,0,.28-1.73,14.77,14.77,0,0,0-.78-3.15c-.39-1.05-.5-2.09-.25-2.33s.16-.48-.18-.54a2.09,2.09,0,0,1-1.1-.9,1.47,1.47,0,0,1,.49-1.66l.09-.13.08-.13c.22.4.48.93.58,1.18a1.31,1.31,0,0,0,.72.64,2.27,2.27,0,0,1,.95.84,5.79,5.79,0,0,1,.52,1.14c.08.27.29.93.46,1.46s.51,1,.74,1.05.5-.21.61-.55a4.18,4.18,0,0,0,0-1.69,11.93,11.93,0,0,1-.21-1.91,7.45,7.45,0,0,1,.11-1.31c.06-.26.25-.3.42-.09s.65-.39,1.06-1.33a10.53,10.53,0,0,0,.26-4.79,7.93,7.93,0,0,0-2.13-4.33,2.87,2.87,0,0,1-.95-3.08c.38-1,2.1-1.63,3.83-1.4h0c.38.56,1,.94,1.32.84s.49-.28.32-.38a2.38,2.38,0,0,1-.4-1.28c-.05-.59.1-1.1.33-1.13s.7.31,1,.74.61.49.61.13a1.75,1.75,0,0,1,.32-1c.18-.19.39,0,.46.4a6,6,0,0,1,.08,1.45c0,.39-.32,2.09-.64,3.77l-.06-.15-.07-.16a39.62,39.62,0,0,0,1.87,5.85c.49,1,.95.7,1-.71a13.67,13.67,0,0,0-.59-4.48,6,6,0,0,1-.52-2.51.63.63,0,0,1,.72-.45,3.36,3.36,0,0,1,1,.59c.28.25.78-.7,1.12-2.11l0-.08,0-.07c.74-.17,1.13-.75.86-1.29A10.35,10.35,0,0,0,454.45,242.89Zm-51.87-1.36a13.33,13.33,0,0,1-2.5-2.3,1.68,1.68,0,0,1,0-1.39,2,2,0,0,1,1.36-.86,2.07,2.07,0,0,1,1.68,1.26,20.07,20.07,0,0,1,1.14,3.16C404.52,242.37,403.76,242.43,402.58,241.53ZM410.3,248c-.49-.37-1-.75-1.06-.85a21.86,21.86,0,0,1-.89-2.89,6.71,6.71,0,0,1-.16-3.7c.31-.53.65-.27.75.59a11.88,11.88,0,0,0,.76,2.82,21,21,0,0,1,1,3C411,247.85,410.79,248.32,410.3,248Z"/></g><path class="cls-27" d="M409.2,211.91s-9.44,1.61-25.53-7.68-27.63-23-27.63-23V159l53.16,30.69Z"/><polygon class="cls-13" points="383.8 193.95 340.69 151.89 383.8 156.18 426.91 201.67 383.8 193.95"/><polygon class="cls-11" points="351.13 184.01 342.93 179.27 345.56 171.87 345.56 154.7 348.51 156.41 348.51 173.58 351.13 184.01"/><polygon class="cls-17" points="334.43 120.86 298.48 100.1 298.48 147.36 334.43 168.11 334.43 120.86"/><polygon class="cls-19" points="334.43 167.27 298.48 146.52 298.48 155.16 334.43 175.91 334.43 167.27"/><polygon class="cls-6" points="334.43 120.86 298.48 100.1 298.48 108.85 334.43 129.61 334.43 120.86"/><polygon class="cls-7" points="317.75 148.14 301.81 138.94 301.81 143.97 317.75 153.17 317.75 148.14"/><polygon class="cls-7" points="317.75 133.52 301.81 124.32 301.81 129.34 317.75 138.55 317.75 133.52"/><polygon class="cls-7" points="330.35 148.11 314.41 138.91 314.41 143.93 330.35 153.13 330.35 148.11"/><polygon class="cls-7" points="330.35 133.48 314.41 124.28 314.41 129.31 330.35 138.51 330.35 133.48"/><polygon class="cls-17" points="465.68 285.24 429.73 264.49 429.73 311.74 465.68 332.49 465.68 285.24"/><polygon class="cls-19" points="465.68 331.65 429.73 310.9 429.73 319.54 465.68 340.29 465.68 331.65"/><polygon class="cls-11" points="465.68 285.24 429.73 264.49 429.73 273.24 465.68 293.99 465.68 285.24"/><polygon class="cls-7" points="449 312.52 433.06 303.32 433.06 308.35 449 317.55 449 312.52"/><polygon class="cls-7" points="449 297.9 433.06 288.7 433.06 293.73 449 302.93 449 297.9"/><polygon class="cls-7" points="461.6 312.49 445.66 303.29 445.66 308.31 461.6 317.51 461.6 312.49"/><polygon class="cls-7" points="461.6 297.86 445.66 288.66 445.66 293.69 461.6 302.89 461.6 297.86"/><path class="cls-13" d="M252.69,205A19.25,19.25,0,0,0,245.43,190v-.14l-.25.05a6.36,6.36,0,0,0-2.33-1.48v2.69l-69.9,39.49,3.56,24.58,70.4-41.87A8.78,8.78,0,0,0,252.69,205Z"/><path class="cls-19" d="M181.81,247.38A8.83,8.83,0,0,1,168.52,255l-49.18-28.78v-2.95l2,1.12,1.64-19.51-3.6-2.17v-2.94l52.92,31a19.26,19.26,0,0,1,9.55,16.64Z"/><path class="cls-7" d="M179.72,245.94h0a7.25,7.25,0,0,1-10.91,6.26L121.3,224.4V203.9L173,234.12A13.69,13.69,0,0,1,179.72,245.94Z"/><polygon class="cls-17" points="168.46 236.44 121.3 208.84 121.3 211.82 168.46 239.42 168.46 236.44"/><polygon class="cls-6" points="147.59 224.22 137.4 218.26 137.4 246.86 142.17 244.63 147.59 252.82 147.59 224.22"/><polygon class="cls-1" points="245.42 189.81 189.42 157.37 119.34 199.78 174.4 232.07 245.42 189.81"/><polygon class="cls-7" points="199.02 179.76 183.88 170.47 180.95 172.04 195.9 181.26 199.02 179.76"/><polygon class="cls-7" points="184.6 215.23 148.15 193.95 145.22 195.51 181.48 216.72 184.6 215.23"/><polygon class="cls-7" points="177.37 219.57 140.92 198.29 137.99 199.85 174.25 221.06 177.37 219.57"/></svg>