<svg id="Слой_1" data-name="Слой 1" xmlns="http://www.w3.org/2000/svg" viewBox="0 0 428.52 450"><defs><style>.cls-1,.cls-6{fill:#173d7a;}.cls-1,.cls-11{opacity:0.5;}.cls-2{fill:#ff2c9c;}.cls-3{fill:#d3008d;}.cls-4{fill:#e573b5;}.cls-5{fill:#fff;}.cls-7{fill:#396caa;}.cls-8{fill:#274f89;}.cls-11,.cls-9{fill:#d4ecff;}.cls-10{fill:#5793ce;}.cls-12{fill:#983be9;}</style></defs><title>Монтажная область 106</title><path class="cls-1" d="M227.43,409.88,69.54,318.72a5.31,5.31,0,0,1,0-9.21l150.13-86.67,168,97a5.32,5.32,0,0,1,0,9.22l-140,80.84A20.17,20.17,0,0,1,227.43,409.88Z"/><path class="cls-2" d="M222.88,174.33c0-10-7-14.11-15.74-9.1L59.47,250.31a9.52,9.52,0,0,0-4.33,7.48c0,2.76,1.93,3.88,4.32,2.5l147.67-85.08c3.92-2.26,7.1-.42,7.1,4.11l0,16.51c2.87-.18,5.74-.18,8.65-.13Z"/><path class="cls-3" d="M59.41,290l147.66-53.81c8.69-5,15.77-17.24,15.78-27.26V195.7c-2.91,0-5.78,0-8.65.13V213.9a15.72,15.72,0,0,1-7.12,12.29L59.41,280a9.57,9.57,0,0,0-4.32,7.49C55.08,290.24,57,291.36,59.41,290Z"/><polygon class="cls-3" points="56.2 290.18 235.84 394.13 387.92 303.43 399.99 285.42 398.74 291.8 395.49 275.1 113.18 285.86 63.44 282.66 56.2 290.18"/><polygon class="cls-4" points="62.16 258.82 62.11 280.93 235.73 381.37 240.42 360.3 62.16 258.82"/><polygon class="cls-2" points="397.75 267.99 218.4 164.23 56.7 258.26 56.37 260.57 235.98 364.48 397.75 267.99"/><path class="cls-5" d="M340.57,321.27l42.17-25c3.56-2.5,6.34-7.55,6.35-11.76l0-3.32c0-2.68-1.12-4.4-2.85-4.91l-83,46.18L235.66,359l.07,22.36Z"/><path class="cls-3" d="M241.73,361.06,63.52,258l-3.78-2.18-3.45-2a8.66,8.66,0,0,0-1.15,4,3,3,0,0,0,1.23,2.77h0l0,0h0L236,364.48Z"/><polygon class="cls-5" points="233.6 392.83 235.84 394.13 236.25 393.41 234.85 392.32 233.6 392.83"/><polygon class="cls-5" points="233.66 363.13 235.95 364.46 235.38 363.21 233.66 363.13"/><path class="cls-2" d="M239.08,354.22l147.67-85.08c8.69-5,15.75-.92,15.74,9.11l0,3.31c0,10-7.09,22.25-15.78,27.26L239,393.9c-2.39,1.37-4.33.26-4.32-2.5a9.54,9.54,0,0,1,4.32-7.48l147.67-85.08a15.76,15.76,0,0,0,7.12-12.3l0-3.31c0-4.52-3.18-6.36-7.1-4.11L239.07,364.2c-2.39,1.38-4.32.26-4.32-2.5A9.56,9.56,0,0,1,239.08,354.22Z"/><path class="cls-5" d="M234.7,391.4a9.54,9.54,0,0,1,4.32-7.48l147.67-85.08a15.76,15.76,0,0,0,7.12-12.3l0-3.31c0-3-1.37-4.76-3.41-5a6,6,0,0,1,1,3.66l0,3.31a15.72,15.72,0,0,1-7.11,12.3L236.66,382.55a9.52,9.52,0,0,0-4.33,7.48c0,2.09,1.11,3.23,2.69,3.07A4,4,0,0,1,234.7,391.4Z"/><path class="cls-5" d="M234.75,361.7a9.56,9.56,0,0,1,4.33-7.48l147.67-85.08c3.74-2.16,7.17-2.62,9.88-1.65-2.89-2.46-7.3-2.57-12.25.28L236.71,352.85a9.61,9.61,0,0,0-4.33,7.48c0,2.09,1.11,3.24,2.69,3.07A4.26,4.26,0,0,1,234.75,361.7Z"/><path class="cls-6" d="M403.78,115.55l-159.33-92a6.43,6.43,0,0,0-5.4-.67h0l-.29.11-.07,0L233,25.23l5.16,2.53c0,.09-.05.18-.07.28L212.09,146.17c-1.3,5.91,1.3,12.81,5.81,15.41l155.49,89.78-.55,6.59,6.29-2.44c2.11-1,3.8-3.23,4.5-6.41l26-118.13C410.88,125.06,408.28,118.15,403.78,115.55Z"/><path class="cls-7" d="M403.78,115.55l-159.33-92a6.43,6.43,0,0,0-5.4-.67h0l-.29.11-.07,0L233,25.23l5.16,2.53c0,.09-.05.18-.07.28l-17.1,77.85,77.95,60.74L408.81,121.9A12.37,12.37,0,0,0,403.78,115.55Z"/><path class="cls-8" d="M397.77,133.71l12.13-5.16c.22-4.7-1.72-9.55-4.92-12.15l-19.19,8.08Z"/><path class="cls-9" d="M367.3,257.32,208,165.33c-4.51-2.6-7.11-9.5-5.81-15.41l26-118.13c1.3-5.91,6-8.6,10.51-6l159.32,92c4.51,2.6,7.11,9.51,5.81,15.42L377.81,251.33C376.51,257.24,371.81,259.92,367.3,257.32Z"/><path class="cls-5" d="M399.48,117.22l-159.32-92a6.31,6.31,0,0,0-6.27-.28,6.55,6.55,0,0,1,4.74.84l159.32,92c4.51,2.6,7.11,9.51,5.81,15.42L377.81,251.33a9,9,0,0,1-4.24,6.26c2.69-.59,4.94-3,5.77-6.82l26-118.13C406.59,126.73,404,119.82,399.48,117.22Z"/><path class="cls-5" d="M363.85,248.53,214,162.06c-4.12-2.38-6.5-8.69-5.31-14.1l23.75-108.1c1.18-5.41,5.49-7.87,9.62-5.48L391.9,120.84c4.12,2.39,6.5,8.7,5.31,14.11l-23.74,108.1C372.28,248.46,368,250.91,363.85,248.53Z"/><path class="cls-6" d="M363.85,248.53,214,162.06c-4.12-2.38-6.5-8.69-5.31-14.1l23.75-108.1c1.18-5.41,5.49-7.87,9.62-5.48L391.9,120.84c4.12,2.39,6.5,8.7,5.31,14.11l-23.74,108.1C372.28,248.46,368,250.91,363.85,248.53Z"/><path class="cls-10" d="M365.15,248,215.31,161.53c-4.12-2.38-6.5-8.69-5.32-14.1l23.75-108.1a8.29,8.29,0,0,1,3.78-5.69c-2.38.61-4.34,2.84-5.08,6.22L208.69,148c-1.19,5.41,1.19,11.72,5.31,14.1l149.85,86.47a5.74,5.74,0,0,0,5.84.21A6,6,0,0,1,365.15,248Z"/><path class="cls-6" d="M369.5,261.33l-21.78-2.88L207.14,177.28c-4.51-2.6-12.38-2.27-17.59.73l-99.62,57.5-13.16-1.74v7.47h0c-.09,1.73.9,3.39,3,4.62l159.33,92c4.5,2.6,12.38,2.28,17.58-.73L365.2,274.5c2.93-1.69,4.39-3.87,4.3-5.92h0Z"/><path class="cls-7" d="M263.87,210l-10-5.77H144.07L89.93,235.51l-13.16-1.74v7.47h0c-.09,1.73.9,3.39,3,4.62l159.33,92a16.37,16.37,0,0,0,9.07,1.7Z"/><path class="cls-10" d="M82.61,234.54l-5.84-.77v7.47h0c-.09,1.73.9,3.39,3,4.62l2.81,1.62Z"/><path class="cls-8" d="M240.73,338.59c4.27,1.62,10.38,1.26,14.94-.93V321H240.73Z"/><path class="cls-9" d="M239.13,330.38l-159.33-92c-4.51-2.6-3.94-7.15,1.26-10.15l108.49-62.61c5.21-3,13.08-3.34,17.59-.73l159.32,92c4.51,2.6,3.94,7.15-1.26,10.15L256.71,329.65C251.51,332.65,243.63,333,239.13,330.38Z"/><path class="cls-5" d="M365.2,264.31,256.71,326.92c-5.2,3-13.08,3.33-17.58.73l-159.33-92A5.88,5.88,0,0,1,77,232.6c-.71,2.13.19,4.29,2.8,5.79l159.33,92c4.5,2.6,12.38,2.27,17.58-.73L365.2,267c3.5-2,4.89-4.73,4.06-7.08A8.49,8.49,0,0,1,365.2,264.31Z"/><path class="cls-10" d="M147.56,207.94l-7.2-4.16c-.58-.34-.51-.92.16-1.31l8.51-4.91a2.49,2.49,0,0,1,2.25-.09l7.21,4.16c.58.33.51.92-.16,1.3l-8.51,4.92A2.54,2.54,0,0,1,147.56,207.94Z"/><path class="cls-10" d="M158.7,214.37l-7.21-4.17c-.58-.33-.51-.91.16-1.3l8.51-4.91a2.52,2.52,0,0,1,2.26-.1l7.21,4.17c.57.33.5.91-.17,1.3l-8.5,4.91A2.52,2.52,0,0,1,158.7,214.37Z"/><path class="cls-10" d="M169.83,220.79l-7.21-4.16c-.58-.33-.51-.92.16-1.3l8.51-4.91a2.52,2.52,0,0,1,2.26-.1l7.21,4.16c.58.34.5.92-.16,1.31l-8.51,4.91A2.48,2.48,0,0,1,169.83,220.79Z"/><path class="cls-10" d="M185.23,215.49,178,211.32c-.58-.33-.51-.91.16-1.3l7.14-4.12a2.52,2.52,0,0,1,2.26-.1l7.21,4.17c.58.33.51.91-.16,1.3l-7.15,4.12A2.49,2.49,0,0,1,185.23,215.49Z"/><path class="cls-10" d="M196.36,221.91l-7.21-4.16c-.58-.33-.51-.92.16-1.3l7.14-4.13a2.54,2.54,0,0,1,2.26-.09l7.21,4.16c.58.34.51.92-.16,1.31l-7.14,4.12A2.48,2.48,0,0,1,196.36,221.91Z"/><path class="cls-10" d="M207.49,228.34l-7.21-4.16c-.58-.34-.5-.92.16-1.3l7.15-4.13a2.51,2.51,0,0,1,2.26-.09l7.2,4.16c.58.33.51.92-.16,1.3l-7.14,4.13A2.51,2.51,0,0,1,207.49,228.34Z"/><path class="cls-10" d="M218.62,234.77l-7.2-4.16c-.58-.34-.51-.92.16-1.31l7.14-4.12a2.48,2.48,0,0,1,2.26-.09l7.21,4.16c.58.33.5.92-.17,1.3l-7.14,4.12A2.52,2.52,0,0,1,218.62,234.77Z"/><path class="cls-10" d="M229.76,241.2,222.55,237c-.58-.33-.51-.91.16-1.3l7.14-4.12a2.52,2.52,0,0,1,2.26-.1l7.21,4.16c.58.34.51.92-.16,1.31L232,241.1A2.49,2.49,0,0,1,229.76,241.2Z"/><path class="cls-10" d="M240.89,247.62l-7.21-4.16c-.58-.33-.51-.92.16-1.3L241,238a2.52,2.52,0,0,1,2.25-.09l7.21,4.16c.58.34.51.92-.16,1.31l-7.14,4.12A2.48,2.48,0,0,1,240.89,247.62Z"/><path class="cls-10" d="M252,254.05l-7.21-4.16c-.58-.34-.5-.92.16-1.31l7.15-4.12a2.51,2.51,0,0,1,2.26-.09l7.2,4.16c.58.33.51.92-.16,1.3L254.28,254A2.54,2.54,0,0,1,252,254.05Z"/><path class="cls-10" d="M263.15,260.48l-7.2-4.16c-.58-.34-.51-.92.16-1.31l7.14-4.12a2.52,2.52,0,0,1,2.26-.1l7.21,4.17c.58.33.5.91-.17,1.3l-7.14,4.12A2.52,2.52,0,0,1,263.15,260.48Z"/><path class="cls-10" d="M274.29,266.91l-7.21-4.17c-.58-.33-.51-.91.16-1.3l7.14-4.12a2.52,2.52,0,0,1,2.26-.1l7.21,4.16c.58.34.51.92-.16,1.31l-7.15,4.12A2.49,2.49,0,0,1,274.29,266.91Z"/><path class="cls-10" d="M285.42,273.33l-7.21-4.16c-.58-.33-.51-.92.16-1.3l7.15-4.13a2.52,2.52,0,0,1,2.25-.09l7.21,4.16c.58.34.51.92-.16,1.31l-7.14,4.12A2.51,2.51,0,0,1,285.42,273.33Z"/><path class="cls-10" d="M201.63,212.44l-7.21-4.16c-.58-.33-.51-.92.16-1.3l7.15-4.13a2.52,2.52,0,0,1,2.25-.09l7.21,4.16c.58.34.51.92-.16,1.31l-7.14,4.12A2.48,2.48,0,0,1,201.63,212.44Z"/><path class="cls-10" d="M190.33,205.92l-7.21-4.16c-.58-.34-.5-.92.16-1.31l7.15-4.12a2.48,2.48,0,0,1,2.26-.09l7.2,4.16c.58.33.51.92-.16,1.3l-7.14,4.13A2.54,2.54,0,0,1,190.33,205.92Z"/><path class="cls-10" d="M179,199.39l-15.52-9c-.58-.33-.51-.92.16-1.3l7.14-4.13a2.54,2.54,0,0,1,2.26-.09l15.53,9c.58.34.5.92-.17,1.31l-7.14,4.12A2.52,2.52,0,0,1,179,199.39Z"/><path class="cls-10" d="M186.92,191.44l-12.6-7.27c-.57-.34-.5-.92.17-1.31l7.14-4.12a2.52,2.52,0,0,1,2.26-.1l12.6,7.28c.58.33.5.92-.16,1.3l-7.15,4.13A2.54,2.54,0,0,1,186.92,191.44Z"/><path class="cls-10" d="M212.76,218.87l-7.21-4.16c-.58-.34-.5-.92.17-1.31l7.14-4.12a2.51,2.51,0,0,1,2.26-.09l7.2,4.16c.58.33.51.92-.16,1.3L215,218.78A2.54,2.54,0,0,1,212.76,218.87Z"/><path class="cls-10" d="M223.89,225.3l-7.2-4.16c-.58-.34-.51-.92.16-1.31l7.14-4.12a2.52,2.52,0,0,1,2.26-.1l7.21,4.17c.58.33.5.91-.16,1.3l-7.15,4.12A2.52,2.52,0,0,1,223.89,225.3Z"/><path class="cls-10" d="M235,231.73l-7.21-4.17c-.58-.33-.51-.91.16-1.3l7.14-4.12a2.52,2.52,0,0,1,2.26-.1l7.21,4.16c.58.34.51.92-.16,1.31l-7.14,4.12A2.52,2.52,0,0,1,235,231.73Z"/><path class="cls-10" d="M246.16,238.15,239,234c-.58-.33-.51-.92.16-1.3l7.15-4.13a2.52,2.52,0,0,1,2.25-.09l7.21,4.16c.58.34.51.92-.16,1.31l-7.14,4.12A2.48,2.48,0,0,1,246.16,238.15Z"/><path class="cls-10" d="M257.29,244.58l-7.21-4.16c-.58-.34-.5-.92.17-1.31l7.14-4.12a2.48,2.48,0,0,1,2.26-.09l7.21,4.16c.57.33.5.92-.17,1.3l-7.14,4.13A2.54,2.54,0,0,1,257.29,244.58Z"/><path class="cls-10" d="M268.42,251l-7.2-4.16c-.58-.34-.51-.92.16-1.31l7.14-4.12a2.52,2.52,0,0,1,2.26-.1l7.21,4.17c.58.33.5.91-.16,1.3l-7.15,4.12A2.52,2.52,0,0,1,268.42,251Z"/><path class="cls-10" d="M279.56,257.43l-7.21-4.16c-.58-.33-.51-.91.16-1.3l7.14-4.12a2.52,2.52,0,0,1,2.26-.1l7.21,4.16c.58.34.51.92-.16,1.31l-7.14,4.12A2.48,2.48,0,0,1,279.56,257.43Z"/><path class="cls-10" d="M290.69,263.86l-7.21-4.16c-.58-.33-.51-.92.16-1.3l7.15-4.13a2.49,2.49,0,0,1,2.25-.09l7.21,4.16c.58.34.51.92-.16,1.3L293,263.77A2.51,2.51,0,0,1,290.69,263.86Z"/><path class="cls-10" d="M301.82,270.29l-7.21-4.16c-.58-.34-.5-.92.17-1.31l7.14-4.12a2.48,2.48,0,0,1,2.26-.09l7.21,4.16c.57.33.5.92-.17,1.3l-7.14,4.13A2.54,2.54,0,0,1,301.82,270.29Z"/><path class="cls-10" d="M321.61,281.72l-15.73-9.09c-.57-.33-.5-.91.17-1.3l7.14-4.12a2.52,2.52,0,0,1,2.26-.1l15.73,9.08c.58.34.5.92-.17,1.31l-7.14,4.12A2.52,2.52,0,0,1,321.61,281.72Z"/><path class="cls-10" d="M343.29,269.2,330,261.54c-.58-.34-.5-.92.16-1.31l7.15-4.12a2.46,2.46,0,0,1,2.25-.09l13.28,7.66c.58.34.51.92-.16,1.31l-7.14,4.12A2.48,2.48,0,0,1,343.29,269.2Z"/><path class="cls-10" d="M232.26,217.61l-7.21-4.16c-.58-.33-.51-.92.16-1.3l7.14-4.13a2.54,2.54,0,0,1,2.26-.09l7.21,4.16c.58.34.51.92-.16,1.31l-7.14,4.12A2.48,2.48,0,0,1,232.26,217.61Z"/><path class="cls-10" d="M220.85,211l-7.21-4.17c-.58-.33-.51-.91.16-1.3l7.14-4.12a2.52,2.52,0,0,1,2.26-.1l7.21,4.16c.58.34.51.92-.16,1.31l-7.14,4.12A2.52,2.52,0,0,1,220.85,211Z"/><path class="cls-10" d="M209.44,204.44l-7.21-4.16c-.58-.34-.51-.92.16-1.31l7.14-4.12a2.48,2.48,0,0,1,2.26-.09l7.21,4.16c.58.33.51.92-.16,1.3l-7.14,4.12A2.52,2.52,0,0,1,209.44,204.44Z"/><path class="cls-10" d="M198,197.85l-7.21-4.16c-.58-.33-.51-.92.16-1.3l7.15-4.13a2.49,2.49,0,0,1,2.25-.09l7.21,4.16c.58.33.51.92-.16,1.3l-7.14,4.13A2.51,2.51,0,0,1,198,197.85Z"/><path class="cls-10" d="M243.39,224l-7.21-4.16c-.58-.34-.5-.92.16-1.31l7.15-4.12a2.46,2.46,0,0,1,2.25-.09l7.21,4.16c.58.33.51.92-.16,1.3L245.65,224A2.54,2.54,0,0,1,243.39,224Z"/><path class="cls-10" d="M254.52,230.47l-7.21-4.16c-.57-.34-.5-.92.17-1.31l7.14-4.12a2.52,2.52,0,0,1,2.26-.1l7.21,4.17c.57.33.5.91-.17,1.3l-7.14,4.12A2.52,2.52,0,0,1,254.52,230.47Z"/><path class="cls-10" d="M265.66,236.9l-7.21-4.17c-.58-.33-.51-.91.16-1.3l7.14-4.12a2.52,2.52,0,0,1,2.26-.1l7.21,4.16c.58.34.5.92-.16,1.31l-7.15,4.12A2.5,2.5,0,0,1,265.66,236.9Z"/><path class="cls-10" d="M276.79,243.32l-7.21-4.16c-.58-.33-.51-.92.16-1.3l7.14-4.13a2.54,2.54,0,0,1,2.26-.09l7.21,4.16c.58.34.51.92-.16,1.31l-7.14,4.12A2.51,2.51,0,0,1,276.79,243.32Z"/><path class="cls-10" d="M287.92,249.75l-7.21-4.16c-.58-.34-.5-.92.16-1.31l7.15-4.12a2.46,2.46,0,0,1,2.25-.09l7.21,4.16c.58.33.51.92-.16,1.3l-7.14,4.13A2.54,2.54,0,0,1,287.92,249.75Z"/><path class="cls-10" d="M299.05,256.18,291.84,252c-.57-.34-.5-.92.17-1.31l7.14-4.12a2.52,2.52,0,0,1,2.26-.1l7.21,4.17c.57.33.5.91-.17,1.3l-7.14,4.12A2.52,2.52,0,0,1,299.05,256.18Z"/><path class="cls-10" d="M310.19,262.6,303,258.44c-.58-.33-.51-.92.16-1.3l7.14-4.12a2.52,2.52,0,0,1,2.26-.1l7.21,4.16c.58.34.5.92-.16,1.31l-7.15,4.12A2.46,2.46,0,0,1,310.19,262.6Z"/><path class="cls-10" d="M321.32,269l-7.21-4.16c-.58-.33-.51-.92.16-1.3l7.14-4.13a2.51,2.51,0,0,1,2.26-.09l7.21,4.16c.58.34.51.92-.16,1.3l-7.14,4.13A2.51,2.51,0,0,1,321.32,269Z"/><path class="cls-10" d="M332.45,275.46l-7.21-4.16c-.58-.34-.5-.92.16-1.31l7.15-4.12a2.46,2.46,0,0,1,2.25-.09l7.21,4.16c.58.33.51.92-.16,1.3l-7.14,4.13A2.54,2.54,0,0,1,332.45,275.46Z"/><path class="cls-10" d="M226.4,201.72l-7.21-4.17c-.58-.33-.51-.91.16-1.3l7.14-4.12a2.52,2.52,0,0,1,2.26-.1l7.21,4.16c.58.34.5.92-.16,1.31l-7.15,4.12A2.49,2.49,0,0,1,226.4,201.72Z"/><path class="cls-10" d="M215.32,195.32l-7.21-4.16c-.58-.34-.51-.92.16-1.31l7.14-4.12a2.48,2.48,0,0,1,2.26-.09l7.21,4.16c.58.33.51.92-.16,1.3l-7.14,4.13A2.54,2.54,0,0,1,215.32,195.32Z"/><path class="cls-10" d="M204.24,188.92,197,184.76c-.58-.33-.5-.92.16-1.3l7.15-4.12a2.52,2.52,0,0,1,2.26-.1l7.2,4.16c.58.34.51.92-.16,1.31l-7.14,4.12A2.48,2.48,0,0,1,204.24,188.92Z"/><path class="cls-10" d="M193.16,182.53l-7.2-4.16c-.58-.34-.51-.92.16-1.31l7.14-4.12a2.48,2.48,0,0,1,2.26-.09l7.21,4.16c.58.33.5.92-.17,1.3l-7.14,4.13A2.54,2.54,0,0,1,193.16,182.53Z"/><path class="cls-10" d="M204.55,176l-7.2-4.16c-.58-.33-.51-.92.16-1.3l2.36-1.37a2.54,2.54,0,0,1,2.26-.09l7.21,4.16c.58.34.5.92-.17,1.31l-2.36,1.36A2.48,2.48,0,0,1,204.55,176Z"/><path class="cls-10" d="M219,184.3l-7.21-4.16c-.58-.34-.5-.92.16-1.31l2.36-1.36a2.48,2.48,0,0,1,2.26-.09l7.21,4.16c.58.33.51.92-.16,1.3l-2.36,1.37A2.54,2.54,0,0,1,219,184.3Z"/><path class="cls-10" d="M230,190.67l-7.21-4.16c-.58-.34-.5-.92.16-1.31l2.37-1.36a2.49,2.49,0,0,1,2.25-.1l7.21,4.17c.58.33.51.91-.16,1.3l-2.36,1.36A2.52,2.52,0,0,1,230,190.67Z"/><path class="cls-10" d="M241.07,197l-7.21-4.17c-.58-.33-.5-.91.17-1.3l2.36-1.36a2.52,2.52,0,0,1,2.26-.1l7.2,4.17c.58.33.51.91-.16,1.3l-2.36,1.36A2.52,2.52,0,0,1,241.07,197Z"/><path class="cls-10" d="M252.1,203.41l-7.21-4.17c-.57-.33-.5-.91.17-1.3l2.36-1.36a2.52,2.52,0,0,1,2.26-.1l7.2,4.16c.58.34.51.92-.16,1.31l-2.36,1.36A2.52,2.52,0,0,1,252.1,203.41Z"/><path class="cls-10" d="M313.69,239l-7.21-4.16c-.58-.34-.51-.92.16-1.31l2.36-1.36a2.51,2.51,0,0,1,2.26-.09l7.21,4.16c.58.33.51.92-.16,1.3L316,238.87A2.54,2.54,0,0,1,313.69,239Z"/><path class="cls-10" d="M324.72,245.33l-7.21-4.16c-.58-.34-.51-.92.16-1.31L320,238.5a2.48,2.48,0,0,1,2.26-.09l7.21,4.16c.58.33.51.92-.16,1.3L327,245.24A2.54,2.54,0,0,1,324.72,245.33Z"/><path class="cls-10" d="M335.75,251.7l-7.21-4.16c-.58-.34-.51-.92.16-1.31l2.36-1.36a2.48,2.48,0,0,1,2.26-.09l7.21,4.16c.58.33.51.92-.16,1.3L338,251.6A2.52,2.52,0,0,1,335.75,251.7Z"/><path class="cls-10" d="M346.78,258.07l-7.21-4.16c-.58-.34-.5-.92.16-1.31l2.37-1.36a2.49,2.49,0,0,1,2.25-.1l7.21,4.17c.58.33.51.91-.16,1.3L349,258A2.52,2.52,0,0,1,346.78,258.07Z"/><path class="cls-10" d="M237.53,208.14,230.32,204c-.58-.33-.51-.92.16-1.3l7.14-4.13a2.54,2.54,0,0,1,2.26-.09l7.21,4.16c.58.34.51.92-.16,1.31l-7.14,4.12A2.48,2.48,0,0,1,237.53,208.14Z"/><path class="cls-10" d="M248.66,214.57l-7.21-4.16c-.58-.34-.5-.92.16-1.31l7.15-4.12a2.46,2.46,0,0,1,2.25-.09l7.21,4.16c.58.33.51.92-.16,1.3l-7.14,4.13A2.54,2.54,0,0,1,248.66,214.57Z"/><path class="cls-10" d="M259.79,221l-7.21-4.16c-.57-.34-.5-.92.17-1.31l7.14-4.12a2.52,2.52,0,0,1,2.26-.1l7.21,4.17c.57.33.5.91-.17,1.3l-7.14,4.12A2.52,2.52,0,0,1,259.79,221Z"/><path class="cls-10" d="M270.93,227.42l-7.21-4.16c-.58-.33-.51-.91.16-1.3l7.14-4.12a2.52,2.52,0,0,1,2.26-.1l7.21,4.16c.58.34.5.92-.16,1.31l-7.15,4.12A2.46,2.46,0,0,1,270.93,227.42Z"/><path class="cls-10" d="M282.06,233.85l-7.21-4.16c-.58-.33-.51-.92.16-1.3l7.14-4.13a2.51,2.51,0,0,1,2.26-.09l7.21,4.16c.58.34.51.92-.16,1.3l-7.14,4.13A2.51,2.51,0,0,1,282.06,233.85Z"/><path class="cls-10" d="M293.19,240.28,286,236.12c-.58-.34-.5-.92.16-1.31l7.15-4.12a2.46,2.46,0,0,1,2.25-.09l7.21,4.16c.58.33.51.92-.16,1.3l-7.14,4.13A2.54,2.54,0,0,1,293.19,240.28Z"/><path class="cls-10" d="M304.32,246.71l-7.21-4.16c-.57-.34-.5-.92.17-1.31l7.14-4.12a2.52,2.52,0,0,1,2.26-.1l7.21,4.17c.58.33.5.91-.17,1.3l-7.14,4.12A2.52,2.52,0,0,1,304.32,246.71Z"/><path class="cls-10" d="M315.46,253.13,308.25,249c-.58-.33-.51-.92.16-1.3l7.14-4.13a2.54,2.54,0,0,1,2.26-.09l7.21,4.16c.58.34.51.92-.16,1.31L317.71,253A2.46,2.46,0,0,1,315.46,253.13Z"/><path class="cls-10" d="M326.59,259.56l-7.21-4.16c-.58-.33-.51-.92.16-1.3l7.14-4.13a2.51,2.51,0,0,1,2.26-.09l7.21,4.16c.58.33.51.92-.16,1.3l-7.14,4.13A2.51,2.51,0,0,1,326.59,259.56Z"/><path class="cls-10" d="M173.88,208.94l-21.23-12.26c-.58-.34-.51-.92.16-1.3l7.15-4.13a2.49,2.49,0,0,1,2.25-.09l21.23,12.26c.58.33.51.91-.16,1.3l-7.14,4.12A2.52,2.52,0,0,1,173.88,208.94Z"/><path class="cls-10" d="M310.65,287.9l-21.23-12.26c-.58-.33-.51-.92.16-1.3l7.14-4.13a2.54,2.54,0,0,1,2.26-.09l21.23,12.26c.58.33.51.91-.16,1.3l-7.14,4.12A2.52,2.52,0,0,1,310.65,287.9Z"/><path class="cls-10" d="M266.13,276.39l-7.21-4.16c-.58-.33-.51-.92.16-1.3l8.51-4.92a2.54,2.54,0,0,1,2.26-.09l7.21,4.16c.57.34.5.92-.17,1.31l-8.5,4.91A2.51,2.51,0,0,1,266.13,276.39Z"/><path class="cls-10" d="M185.28,229.72l-11.53-6.66c-.58-.33-.5-.92.17-1.3l8.5-4.92a2.54,2.54,0,0,1,2.26-.09l11.53,6.66c.58.33.51.91-.16,1.3l-8.51,4.91A2.52,2.52,0,0,1,185.28,229.72Z"/><path class="cls-10" d="M255.4,270.2l-11.53-6.66c-.58-.33-.5-.92.16-1.3l8.51-4.91a2.52,2.52,0,0,1,2.26-.1l11.53,6.66c.58.33.51.92-.16,1.3l-8.51,4.92A2.54,2.54,0,0,1,255.4,270.2Z"/><path class="cls-10" d="M201.34,239l-11.52-6.66c-.58-.33-.51-.91.16-1.3l8.51-4.91a2.49,2.49,0,0,1,2.25-.1l11.53,6.66c.58.33.51.92-.16,1.3l-8.51,4.92A2.54,2.54,0,0,1,201.34,239Z"/><path class="cls-10" d="M200.82,226.07,251,255a.69.69,0,0,1,0,1.3l-8.68,5a2.48,2.48,0,0,1-2.25,0l-50.13-28.94Z"/><path class="cls-10" d="M297.24,288.05l8,4.63c.47.28.42.75-.13,1.07l-3.48,2a2.06,2.06,0,0,1-1.85.08l-8-4.64c-.48-.27-.42-.75.13-1.07l3.48-2A2.05,2.05,0,0,1,297.24,288.05Z"/><path class="cls-10" d="M286,281.56l8,4.64c.47.27.41.75-.14,1.07l-3.48,2a2.09,2.09,0,0,1-1.85.08l-8-4.64c-.47-.27-.41-.75.13-1.07l3.48-2A2.08,2.08,0,0,1,286,281.56Z"/><path class="cls-10" d="M274.88,275.14l8,4.63c.48.28.42.76-.13,1.07l-3.48,2a2.06,2.06,0,0,1-1.85.08l-8-4.64c-.48-.27-.42-.75.13-1.07l3.48-2A2.05,2.05,0,0,1,274.88,275.14Z"/><path class="cls-10" d="M292.16,278l8,4.63c.48.28.42.75-.13,1.07l-3.48,2a2.06,2.06,0,0,1-1.85.08l-8-4.64c-.48-.27-.42-.75.13-1.07l3.48-2A2.05,2.05,0,0,1,292.16,278Z"/><polygon class="cls-9" points="336.14 152.6 276.17 117.98 276.94 114.08 336.91 148.7 336.14 152.6"/><polygon class="cls-9" points="314.66 159.18 272.8 135.01 273.57 131.11 315.43 155.28 314.66 159.18"/><polygon class="cls-5" points="310.7 147.4 274.49 126.5 275.26 122.6 311.47 143.5 310.7 147.4"/><polygon class="cls-2" points="334.45 161.12 316.35 150.66 317.12 146.76 335.22 157.22 334.45 161.12"/><polygon class="cls-9" points="269.79 83.97 251.68 73.51 252.45 69.61 270.56 80.07 269.79 83.97"/><polygon class="cls-5" points="267.82 93.03 249.72 82.57 250.49 78.67 268.59 89.13 267.82 93.03"/><polygon class="cls-9" points="356.69 218.69 338.58 208.23 339.36 204.34 357.46 214.79 356.69 218.69"/><polygon class="cls-9" points="263.89 111.15 245.79 100.69 246.56 96.79 264.66 107.25 263.89 111.15"/><path class="cls-2" d="M303,114a2.26,2.26,0,0,1-3.25,1,2.85,2.85,0,0,1-1.17-3.56,2.26,2.26,0,0,1,3.26-1A2.82,2.82,0,0,1,303,114Z"/><path class="cls-5" d="M310.81,118.46a2.26,2.26,0,0,1-3.25,1,2.84,2.84,0,0,1-1.17-3.56,2.27,2.27,0,0,1,3.26-1A2.84,2.84,0,0,1,310.81,118.46Z"/><path class="cls-9" d="M318.61,123a2.25,2.25,0,0,1-3.25,1,2.83,2.83,0,0,1-1.17-3.55,2.27,2.27,0,0,1,3.26-1A2.84,2.84,0,0,1,318.61,123Z"/><path class="cls-2" d="M326.41,127.46a2.25,2.25,0,0,1-3.25,1,2.81,2.81,0,0,1-1.17-3.55,2.26,2.26,0,0,1,3.26-1A2.82,2.82,0,0,1,326.41,127.46Z"/><path class="cls-1" d="M405.15,376.28a9.7,9.7,0,0,0-8.78,0L283.12,441.69c-2.42,1.4-2.42,3.67,0,5.07a9.7,9.7,0,0,0,8.78,0l113.25-65.41C407.57,380,407.57,377.68,405.15,376.28Z"/><path class="cls-9" d="M424.5,340.85h0a.49.49,0,0,0-.53-.23l-6.85,1.49,2.69,4.59,4.63-5.27A.48.48,0,0,0,424.5,340.85Z"/><path class="cls-10" d="M421.8,344.24a3.41,3.41,0,0,0-1.57-2.67,1.1,1.1,0,0,0-1-.13,43.82,43.82,0,0,0-22.53,6l-.49.29,8.51,14.48,2.51-1.67A43.74,43.74,0,0,0,420.33,347l1.08-1.76A1.14,1.14,0,0,0,421.8,344.24Z"/><path class="cls-9" d="M406.4,358.38a13.12,13.12,0,0,0-6-10.23c-3.29-1.87-5.94-.32-5.91,3.47a13.1,13.1,0,0,0,6,10.23C403.78,363.72,406.43,362.17,406.4,358.38Z"/><polygon class="cls-9" points="354.19 393.7 404.69 362.24 396.18 347.76 344.13 376.59 354.19 393.7"/><path class="cls-9" d="M356.21,389.14a15.51,15.51,0,0,0-7.11-12.09c-3.89-2.21-7-.37-7,4.1a15.51,15.51,0,0,0,7.1,12.1C353.12,395.45,356.24,393.61,356.21,389.14Z"/><path class="cls-9" d="M353.33,390.83a15.53,15.53,0,0,0-7.11-12.09c-3.89-2.21-7-.37-7,4.1a15.53,15.53,0,0,0,7.11,12.1C350.24,397.15,353.36,395.31,353.33,390.83Z"/><rect class="cls-9" x="274.13" y="396.55" width="77.5" height="19.84" transform="translate(-162.83 214.6) rotate(-30.45)"/><path class="cls-9" d="M286.52,430.1A15.53,15.53,0,0,0,279.41,418c-3.89-2.21-7-.37-7,4.1a15.49,15.49,0,0,0,7.1,12.1C283.43,436.42,286.55,434.58,286.52,430.1Z"/><path class="cls-7" d="M284,428.67a10.26,10.26,0,0,0-4.81-7.34c-2.5-1.42-4.4-.43-4.24,2.21a10.24,10.24,0,0,0,4.8,7.35C282.25,432.31,284.15,431.31,284,428.67Z"/><path class="cls-5" d="M356.72,388.84a15.51,15.51,0,0,0-7.11-12.09,5.49,5.49,0,0,0-4.17-.78c1.26-1.32,3.33-1.48,5.69-.14a15.5,15.5,0,0,1,7.11,12.09c0,2.68-1.09,4.4-2.81,4.89A5.58,5.58,0,0,0,356.72,388.84Z"/><path class="cls-10" d="M356.72,388.84a15.51,15.51,0,0,0-7.11-12.09c-1.95-1.11-3.7-1.2-5-.45l-3.78,2.22,1.8,3.07a15.84,15.84,0,0,0,6.45,11l1.8,3.06,3.79-2.22h0C356,392.66,356.73,391.08,356.72,388.84Z"/><path class="cls-9" d="M352.93,391.07a15.53,15.53,0,0,0-7.11-12.1c-3.89-2.2-7-.37-7,4.11A15.48,15.48,0,0,0,346,395.17C349.84,397.38,353,395.54,352.93,391.07Z"/><path class="cls-2" d="M280.85,430.66l-4.34-7.38-14.16,8.32a4.28,4.28,0,0,0-1.52,5.86h0a4.28,4.28,0,0,0,5.86,1.52Z"/><path class="cls-2" d="M281.72,428.69a6.66,6.66,0,0,0-3.07-5.21c-1.67-1-3-.16-3,1.77a6.68,6.68,0,0,0,3.07,5.21C280.39,431.42,281.74,430.62,281.72,428.69Z"/><path class="cls-10" d="M297.46,402.64l-2.12-1.2c-1.22-.69-2.84-.52-4.54.49l-7.28,4.27a5.56,5.56,0,0,0-2.47,4.36l0,3.64a3.07,3.07,0,0,1-.73,1.83l.27,1.69-1.82-1h0a.91.91,0,0,1-.43-.88l0-3.64a11.53,11.53,0,0,1,5.14-9.08l7.28-4.28c2.43-1.43,4.73-1.67,6.46-.69l2.12,1.2c1.22.7,2.84.52,4.55-.48l29.33-17.24a1,1,0,0,1,1-.1h0l1.81,1-1.55.59a3,3,0,0,1-1.21,1.6L303.92,402C301.49,403.38,299.2,403.63,297.46,402.64Z"/><path class="cls-10" d="M297.18,402.49c-1.22-.69-2.84-.52-4.55.49l-7.27,4.28a5.52,5.52,0,0,0-2.47,4.35l0,3.64a3,3,0,0,1-1.34,2.36c-.75.44-1.36.1-1.37-.77l0-3.64a11.54,11.54,0,0,1,5.14-9.08l7.28-4.28c2.43-1.43,4.72-1.67,6.46-.69l2.12,1.21c1.22.69,2.84.51,4.55-.49l29.33-17.24c.74-.44,1.35-.09,1.36.77a3,3,0,0,1-1.34,2.36L305.76,403c-2.43,1.42-4.73,1.67-6.46.69Z"/><path class="cls-5" d="M282.8,412.21l0,3.64s0,0,0,.08a2.35,2.35,0,0,0,.11-.68l0-3.64c0-.1,0-.21,0-.32A3.67,3.67,0,0,0,282.8,412.21Z"/><path class="cls-1" d="M14,365.26A14.09,14.09,0,0,0,15.74,369c-9.3,7.83-7.93,18.62,4.12,25.57,13.6,7.85,35.65,7.85,49.25,0,10-5.79,12.65-14.22,7.89-21.41a19.78,19.78,0,0,0,3.39-3.65c8.67,8.41,7.71,19.22-2.87,27.11l11.28,6.6c4.26-1.51,9.51-1.41,12.75.46l41,23.68c3.88,2.24,3.39,6.16-1.09,8.74s-11.26,2.87-15.14.63L85.32,413c-2.94-1.7-3.37-4.36-1.45-6.68L72.49,399.7c-16.43,8.62-41.82,8.37-57.68-.78C-1.25,389.65-1.52,374.73,14,365.26Z"/><path class="cls-11" d="M18.51,343.89c14.82-8.56,38.86-8.56,53.68,0,6.15,3.55,9.74,8,10.79,12.63-.93,4.08-3.83,8-8.72,11.34A31.1,31.1,0,0,0,70.11,365c-14.82-8.56-38.86-8.56-53.68,0-.73.42-1.42.86-2.07,1.31-3.64-3-5.86-6.34-6.64-9.8C8.77,351.9,12.36,347.44,18.51,343.89Z"/><path class="cls-3" d="M83.88,363.36l-5.79-7.56L60.5,347.63l-15.15-1.34-17.74,2.17-12.32,6.36-7.86,5L6,351.67l2.65-9.42s6.73-4.45,7.14-4.86,15.73-5.9,15.73-5.9l15.31-1L59.16,332l12.51,3.72,8.28,5.8,6.21,7.86.69,9.83Z"/><polygon class="cls-3" points="1.77 353.66 1.77 369.56 6.02 362.67 1.77 353.66"/><path class="cls-3" d="M72.19,354.48c-14.82-8.56-38.86-8.56-53.68,0-4.67,2.69-7.86,5.91-9.59,9.33-1.31-1.17-3-2.09-3.69-3.66a30.07,30.07,0,0,1,9.3-8c17-9.83,44.62-9.83,61.64,0a30.94,30.94,0,0,1,8.73,7.2,13.18,13.18,0,0,1-3.11,4.43C80.06,360.4,76.86,357.18,72.19,354.48Z"/><path class="cls-11" d="M18.51,343.89c14.82-8.56,38.86-8.56,53.68,0,6.15,3.55,9.74,8,10.79,12.63-1,4.62-4.64,9.08-10.79,12.63-14.82,8.56-38.86,8.56-53.69,0-6.14-3.54-9.73-8-10.78-12.63C8.77,351.9,12.36,347.44,18.51,343.89Z"/><path class="cls-3" d="M5.23,360.15a5.38,5.38,0,0,0,1.33,1.72v-.17L10.5,364l4.83,4.49,6.69,3,9.24,3.31,8.21,1.93,11.31.49,7.31-.76,14.48-3.79L82,364.32c-.08-.17-.14-.33-.22-.5a13.18,13.18,0,0,0,3.11-4.43q.38.48.72,1l3.31-6.89V370h0c0,6.44-4.24,12.89-12.75,17.8-17,9.83-44.62,9.83-61.64,0C1.59,380.3-1.5,369.31,5.23,360.15Z"/><path class="cls-2" d="M78.6,367.33l3.41-3c-.08-.17-.14-.33-.22-.5a13.18,13.18,0,0,0,3.11-4.43q.38.48.72,1l3.31-6.89V370h0c0,5.79-3.43,11.58-10.32,16.26Z"/><path class="cls-2" d="M14.53,371.45c17,9.82,44.62,9.82,61.64,0s17-25.76,0-35.59-44.62-9.82-61.64,0S-2.49,361.62,14.53,371.45Zm4-33.29c14.82-8.56,38.86-8.56,53.68,0s14.83,22.43,0,31-38.86,8.56-53.69,0S3.68,346.72,18.51,338.16Z"/><polygon class="cls-9" points="104.67 389.48 80.52 375.42 77.31 380.63 101.57 394.76 104.67 389.48"/><path class="cls-12" d="M101,393.37c0,1.38,1,1.94,2.16,1.25a4.78,4.78,0,0,0,2.17-3.75c0-1.38-1-1.94-2.17-1.25A4.8,4.8,0,0,0,101,393.37Z"/><path class="cls-12" d="M101,393.37c0,1.38,1,1.94,2.16,1.25a4.78,4.78,0,0,0,2.17-3.75c0-1.38-1-1.94-2.17-1.25A4.8,4.8,0,0,0,101,393.37Z"/><path class="cls-9" d="M76.79,379.31c0,1.38,1,1.94,2.17,1.25a4.78,4.78,0,0,0,2.17-3.75c0-1.38-1-1.94-2.17-1.25A4.78,4.78,0,0,0,76.79,379.31Z"/><path class="cls-10" d="M89.08,394.39c0-5.94,4.17-13.17,9.31-16.14,2.64-1.52,5-1.62,6.71-.57h0l51.07,29.69-13.35,22.71L92.29,400.65a4.45,4.45,0,0,1-1-.56l0,0h0C89.91,399,89.08,397,89.08,394.39Z"/><path class="cls-9" d="M152.47,413.65l-57.16-33a15.93,15.93,0,0,1,3.08-2.4c2.64-1.52,5-1.62,6.71-.57h0l51.07,29.69Z"/><ellipse class="cls-9" cx="149.5" cy="418.71" rx="13.18" ry="7.61" transform="translate(-287.87 338.81) rotate(-60)"/><path class="cls-10" d="M147.74,421.32a6.07,6.07,0,1,0,6.07-6.07A6.07,6.07,0,0,0,147.74,421.32Z"/><circle class="cls-5" cx="156.72" cy="419.09" r="1.79"/><path class="cls-5" d="M148.81,407.56c2.75-1.59,5.22-1.63,6.92-.42-1.65-.77-3.83-.57-6.23.82-5.15,3-9.32,10.19-9.32,16.13,0,2.77.91,4.75,2.39,5.8-1.89-.88-3.08-3-3.08-6.2C139.49,417.75,143.66,410.53,148.81,407.56Z"/><path class="cls-5" d="M18.51,338.16c14.82-8.56,38.86-8.56,53.68,0,7.72,4.45,11.41,10.35,11.09,16.19-.29-5.37-4-10.69-11.09-14.8-14.82-8.56-38.86-8.56-53.68,0-7.11,4.11-10.8,9.43-11.09,14.8C7.09,348.51,10.79,342.62,18.51,338.16Z"/><path class="cls-5" d="M14.53,371.45c17,9.82,44.62,9.82,61.64,0,8.2-4.74,12.44-10.89,12.73-17.1.32,6.67-3.92,13.4-12.73,18.49-17,9.83-44.62,9.83-61.64,0-8.82-5.1-13-11.83-12.74-18.5C2.09,360.56,6.33,366.71,14.53,371.45Z"/><path class="cls-3" d="M195.57,87.33l-47-27.12a2.83,2.83,0,0,0-2.66-.2v0l-5.61,2.64,3.34,1.17L136.87,98c-.55,2.78.69,6,2.78,7.22l44.92,25.92-.8,4,5.66-2.65h0a4.1,4.1,0,0,0,2-3l6.92-34.93C198.9,91.77,197.66,88.54,195.57,87.33Z"/><path class="cls-2" d="M180.94,135l-47-27.13c-2.09-1.2-3.33-4.44-2.78-7.22l6.92-34.93c.55-2.78,2.69-4.06,4.78-2.86l47,27.13c2.09,1.2,3.34,4.43,2.79,7.22l-6.93,34.93C185.17,134.94,183,136.22,180.94,135Z"/><path class="cls-5" d="M190.93,89.59l-47-27.13a2.81,2.81,0,0,0-3.08,0,3,3,0,0,1,2,.39l47,27.13c2.09,1.2,3.34,4.43,2.79,7.22l-6.93,34.93A4.32,4.32,0,0,1,184,135c1.3-.22,2.39-1.38,2.76-3.25l6.93-34.93C194.27,94,193,90.79,190.93,89.59Z"/><path class="cls-5" d="M154,95.86a2.49,2.49,0,0,1-3.9,1.83,5.49,5.49,0,0,1-2.44-5.49,2.48,2.48,0,0,1,3.89-1.83A5.51,5.51,0,0,1,154,95.86Z"/><ellipse class="cls-5" cx="160.38" cy="99.57" rx="3.04" ry="4.25" transform="translate(-26.05 69.92) rotate(-22.8)"/><path class="cls-5" d="M173.16,106.94a2.48,2.48,0,0,1-3.9,1.83,5.5,5.5,0,0,1-2.44-5.49,2.48,2.48,0,0,1,3.89-1.83A5.52,5.52,0,0,1,173.16,106.94Z"/><path class="cls-10" d="M378.83,29.68l-47-27.12a2.85,2.85,0,0,0-2.67-.2v0L323.58,5l3.34,1.17-6.78,34.22c-.56,2.78.69,6,2.78,7.22l44.91,25.92-.79,4,5.66-2.65h0a4.12,4.12,0,0,0,2-3l6.92-34.93C382.17,34.12,380.92,30.89,378.83,29.68Z"/><path class="cls-9" d="M364.21,77.37l-47-27.13c-2.08-1.2-3.33-4.44-2.78-7.22l6.93-34.93c.55-2.78,2.69-4.06,4.78-2.86l47,27.12c2.09,1.21,3.33,4.44,2.78,7.23L369,74.51C368.44,77.29,366.3,78.57,364.21,77.37Z"/><path class="cls-5" d="M374.2,31.93l-47-27.12a2.81,2.81,0,0,0-3.08,0,3,3,0,0,1,2,.39l47,27.12c2.09,1.21,3.33,4.44,2.78,7.23L369,74.51a4.33,4.33,0,0,1-1.7,2.83c1.31-.22,2.4-1.38,2.77-3.25L377,39.16C377.53,36.37,376.29,33.14,374.2,31.93Z"/><path class="cls-5" d="M337.21,38.21A2.48,2.48,0,0,1,333.32,40a5.51,5.51,0,0,1-2.45-5.49,2.48,2.48,0,0,1,3.9-1.83A5.5,5.5,0,0,1,337.21,38.21Z"/><path class="cls-5" d="M346.82,43.75a2.49,2.49,0,0,1-3.9,1.83,5.51,5.51,0,0,1-2.44-5.49,2.48,2.48,0,0,1,3.89-1.83A5.52,5.52,0,0,1,346.82,43.75Z"/><path class="cls-5" d="M356.42,49.29a2.48,2.48,0,0,1-3.89,1.83,5.52,5.52,0,0,1-2.45-5.49A2.49,2.49,0,0,1,354,43.8,5.51,5.51,0,0,1,356.42,49.29Z"/></svg>